<!-- Bebida Selada® — QR Selo Institucional v3 (SVG Vetorial) -->
<svg xmlns="http://www.w3.org/2000/svg" viewBox="0 0 512 512">
  <!-- Fundo -->
  <rect width="512" height="512" rx="36" fill="#FAFAF5" stroke="#000" stroke-width="8"/>
  <rect x="12" y="12" width="488" height="488" rx="28" fill="none" stroke="#D9B93F" stroke-width="3"/>

  <!-- Simulação dos blocos do QR (simplificada mas funcional visualmente) -->
  <rect x="60" y="60" width="60" height="60" fill="#000"/>
  <rect x="392" y="60" width="60" height="60" fill="#000"/>
  <rect x="60" y="392" width="60" height="60" fill="#000"/>
  <rect x="140" y="140" width="20" height="20" fill="#000"/>
  <rect x="200" y="200" width="20" height="20" fill="#000"/>
  <rect x="180" y="260" width="20" height="20" fill="#000"/>
  <rect x="260" y="180" width="20" height="20" fill="#000"/>
  <rect x="280" y="300" width="20" height="20" fill="#000"/>
  <rect x="320" y="240" width="20" height="20" fill="#000"/>
  <rect x="360" y="280" width="20" height="20" fill="#000"/>
  <rect x="240" y="360" width="20" height="20" fill="#000"/>
  <rect x="280" y="400" width="20" height="20" fill="#000"/>

  <!-- Garrafa dourada central -->
  <g transform="translate(200,120)">
    <rect x="48" y="60" width="16" height="40" rx="4" fill="#B88C2A"/>
    <rect x="36" y="100" width="40" height="140" rx="10" fill="url(#goldGradient)"/>
    <rect x="42" y="110" width="28" height="120" rx="6" fill="url(#goldGradient)" opacity="0.9"/>
  </g>

  <!-- Cadeado branco -->
  <g transform="translate(228,200)">
    <rect x="28" y="56" width="28" height="22" rx="4" fill="#FFFFFF"/>
    <path d="M42 56 v-10 a10 10 0 0 1 20 0 v10" stroke="#FFFFFF" stroke-width="4" fill="none"/>
  </g>

  <!-- Gradiente dourado -->
  <defs>
    <linearGradient id="goldGradient" x1="0" y1="0" x2="0" y2="1">
      <stop offset="0%" stop-color="#E6C24A"/>
      <stop offset="50%" stop-color="#D9B93F"/>
      <stop offset="100%" stop-color="#B88C2A"/>
    </linearGradient>
  </defs>
</svg>
