<?xml version="1.0" standalone="no"?>
<!DOCTYPE svg PUBLIC "-//W3C//DTD SVG 20010904//EN"
 "http://www.w3.org/TR/2001/REC-SVG-20010904/DTD/svg10.dtd">
<svg version="1.0" xmlns="http://www.w3.org/2000/svg"
 width="1024.000000pt" height="1024.000000pt" viewBox="0 0 1024.000000 1024.000000"
 preserveAspectRatio="xMidYMid meet">

<g transform="translate(0.000000,1024.000000) scale(0.100000,-0.100000)"
fill="#000000" stroke="none">
<path d="M0 5120 l0 -5120 5120 0 5120 0 0 5120 0 5120 -5120 0 -5120 0 0
-5120z m5620 3737 c583 -88 1116 -291 1580 -600 405 -270 790 -659 1053 -1063
35 -55 76 -121 91 -149 35 -64 19 -42 -79 114 -144 227 -409 545 -582 698 -32
28 -75 68 -97 87 -21 20 -43 33 -49 29 -6 -3 -7 -1 -3 5 6 11 -70 58 -86 54
-4 -1 -5 4 -2 12 7 18 -12 32 -51 35 -8 0 -15 6 -15 12 0 5 6 7 13 3 7 -4 9
-3 4 2 -5 5 -13 9 -17 9 -5 0 -15 8 -23 19 -8 10 -28 20 -47 21 -23 2 -29 0
-19 -7 12 -8 11 -9 -1 -5 -8 2 -20 13 -25 24 -6 11 -15 18 -20 17 -6 -2 -23 8
-40 21 -29 24 -29 25 -7 25 13 0 20 4 17 10 -4 7 -12 7 -25 0 -12 -6 -27 -7
-42 -1 -35 14 -89 57 -81 65 4 4 0 4 -10 0 -11 -4 -19 0 -23 10 -5 14 -9 14
-22 4 -13 -11 -14 -11 -8 0 5 8 -2 16 -23 23 -17 6 -31 15 -31 20 0 5 -7 9
-15 9 -9 0 -18 7 -22 16 -5 13 -7 13 -14 2 -12 -18 -11 -48 2 -48 5 0 7 6 4
13 -4 6 0 4 9 -7 8 -10 20 -15 27 -10 7 4 10 3 6 -3 -4 -6 5 -15 19 -22 14 -6
23 -15 20 -20 -3 -5 2 -8 12 -7 10 0 16 -6 16 -16 -1 -10 2 -15 7 -12 5 3 9
12 9 19 0 9 6 12 17 8 10 -4 12 -8 5 -11 -8 -2 -7 -11 5 -28 16 -24 63 -58 49
-35 -4 6 0 11 9 11 12 0 15 -6 10 -20 -4 -12 -2 -20 5 -20 6 0 8 5 4 13 -6 9
-5 9 7 0 9 -7 25 -11 37 -8 24 4 31 -12 9 -21 -8 -3 -14 -11 -14 -18 0 -10 12
-13 39 -11 21 1 38 -2 38 -7 0 -6 -7 -8 -15 -4 -8 3 -15 1 -15 -4 0 -5 -8 -7
-17 -4 -15 5 -15 4 -3 -4 8 -6 18 -8 22 -6 4 3 8 0 8 -6 0 -7 8 -9 20 -5 12 4
20 2 20 -5 0 -6 12 -15 26 -20 17 -7 24 -15 20 -25 -6 -17 48 -60 64 -50 5 3
10 0 10 -7 0 -10 2 -10 9 1 6 10 11 5 16 -19 5 -21 10 -28 15 -20 5 8 9 5 13
-10 4 -14 10 -19 18 -14 8 5 10 3 4 -6 -5 -9 -1 -11 16 -6 13 3 18 3 12 0 -25
-11 -13 -26 15 -20 26 6 26 6 8 -9 -11 -8 -16 -15 -10 -15 5 0 23 -13 40 -30
18 -16 35 -26 39 -22 4 4 5 2 3 -3 -3 -12 113 -131 125 -127 4 1 7 -3 7 -9 0
-18 132 -159 143 -152 6 3 7 1 3 -5 -4 -6 10 -30 32 -54 100 -110 260 -341
371 -536 330 -575 478 -1173 457 -1852 -22 -747 -251 -1442 -673 -2037 -34
-49 -85 -116 -112 -150 -34 -42 -49 -68 -45 -80 4 -13 3 -15 -4 -5 -7 10 -15
6 -36 -18 -14 -17 -23 -37 -20 -42 4 -6 2 -8 -4 -4 -12 7 -82 -70 -79 -87 1
-6 -4 -12 -10 -13 -27 -3 -28 -5 -13 -15 12 -8 11 -9 -5 -7 -16 2 -19 -2 -17
-19 2 -13 -1 -23 -7 -23 -6 0 -7 8 -4 17 6 16 5 16 -10 4 -13 -10 -15 -17 -6
-27 7 -9 8 -14 1 -14 -6 0 -12 5 -14 10 -2 6 -23 -10 -48 -36 -25 -26 -37 -44
-27 -41 9 4 17 2 17 -3 0 -6 -4 -10 -10 -10 -5 0 -36 -27 -70 -60 -33 -33 -60
-56 -60 -51 0 5 3 11 8 13 4 2 21 19 37 37 l30 34 -30 -20 c-40 -28 -81 -73
-67 -73 7 0 12 -4 12 -10 0 -5 -7 -10 -16 -10 -8 0 -12 -5 -9 -10 4 -6 -5 -10
-24 -8 -31 2 -86 -36 -76 -53 3 -4 0 -11 -6 -15 -8 -5 -9 -3 -4 6 5 8 3 11 -6
8 -8 -3 -15 -10 -15 -16 -1 -7 -2 -16 -3 -22 0 -5 -8 -10 -16 -10 -8 0 -15 -5
-15 -12 0 -6 -3 -8 -7 -4 -4 4 3 16 17 27 16 13 18 17 5 10 -29 -15 -73 -54
-54 -48 9 3 16 -1 16 -8 0 -7 -7 -12 -16 -11 -9 0 -15 -5 -13 -12 1 -6 -4 -11
-10 -10 -7 2 -12 -3 -10 -10 1 -8 -2 -10 -8 -7 -6 4 -29 -5 -51 -19 -21 -15
-39 -23 -39 -19 1 5 28 26 61 47 33 21 58 41 55 43 -6 7 -136 -88 -131 -96 2
-5 -1 -16 -9 -26 -11 -15 -13 -16 -13 -1 0 9 5 16 10 16 6 0 8 2 5 5 -10 11
-36 -7 -33 -23 1 -9 0 -11 -2 -5 -3 10 -11 9 -34 -2 -30 -16 -41 -32 -14 -21
8 3 15 0 15 -5 0 -7 -9 -9 -21 -6 -30 8 -136 -52 -117 -65 9 -7 8 -8 -5 -4
-23 7 -60 -11 -51 -26 4 -7 3 -8 -4 -4 -6 4 -52 -14 -101 -38 -643 -324 -1366
-442 -2071 -340 -551 80 -1034 266 -1505 580 -341 228 -604 471 -865 799 -35
44 -67 79 -72 77 -5 -1 -7 1 -4 6 7 12 -42 78 -55 74 -6 -1 -8 1 -5 6 5 9 -98
182 -116 193 -5 3 -9 8 -8 10 5 13 -14 37 -25 33 -7 -3 -16 0 -21 7 -5 9 -2
10 9 6 27 -10 19 12 -8 25 -14 6 -25 16 -25 21 0 5 7 3 17 -4 15 -13 15 -11
-1 19 -9 17 -19 32 -22 32 -3 0 -3 -4 0 -9 3 -5 -1 -12 -10 -15 -12 -4 -15 -2
-10 9 7 20 -4 46 -17 38 -6 -3 -7 -1 -3 6 4 6 12 9 17 6 5 -4 9 -2 9 4 0 6 -9
15 -21 21 -11 7 -18 17 -16 24 3 7 -2 23 -10 37 -8 13 -12 16 -9 7 3 -10 1
-18 -5 -18 -7 0 -9 10 -5 25 5 21 3 25 -14 25 -12 0 -18 5 -15 10 4 6 10 8 15
5 5 -3 3 8 -3 24 -9 25 -14 28 -30 19 -14 -7 -17 -7 -13 1 4 6 2 11 -5 11 -7
0 -4 7 7 15 11 8 14 15 7 15 -7 0 -13 9 -13 20 0 11 -5 20 -11 20 -6 0 -8 -8
-4 -19 3 -11 1 -22 -4 -26 -6 -3 -9 0 -6 7 4 9 -2 14 -15 15 -11 1 -20 -4 -20
-10 0 -8 -3 -8 -9 1 -12 20 -23 -12 -15 -44 5 -21 9 -23 23 -12 13 10 14 10 4
-2 -15 -17 -17 -34 -3 -25 6 4 7 -1 3 -11 -5 -13 -3 -15 7 -9 9 6 11 4 5 -4
-9 -16 25 -92 38 -84 6 3 7 1 3 -5 -10 -17 26 -85 37 -70 6 9 7 7 3 -5 -7 -21
17 -61 29 -49 5 4 5 1 1 -6 -4 -7 8 -41 30 -80 63 -114 197 -312 207 -305 6 3
7 1 3 -5 -3 -5 44 -75 106 -154 121 -155 412 -454 538 -554 41 -32 84 -67 95
-77 47 -44 343 -248 453 -312 45 -26 82 -50 82 -52 0 -10 -122 63 -270 162
-325 217 -600 460 -836 740 -491 582 -784 1272 -876 2060 -17 145 -17 636 0
775 47 382 131 707 268 1037 102 244 191 409 355 654 373 558 987 1073 1578
1324 338 144 662 235 1001 280 250 33 245 33 575 30 248 -3 314 -7 455 -28z
m1476 -644 c-7 -7 -26 7 -26 19 0 6 6 6 15 -2 9 -7 13 -15 11 -17z m244 -103
c-8 -5 -17 -7 -19 -4 -3 3 1 9 9 14 8 5 17 7 19 4 3 -3 -1 -9 -9 -14z m177
-126 c-3 -3 -12 -4 -19 -1 -8 3 -5 6 6 6 11 1 17 -2 13 -5z m892 -1051 c17
-31 29 -58 27 -61 -3 -2 -19 23 -35 57 -39 77 -33 80 8 4z m65 -129 c3 -8 2
-12 -4 -9 -6 3 -10 10 -10 16 0 14 7 11 14 -7z m65 -139 c0 -5 -13 15 -29 45
-16 30 -29 60 -29 65 0 6 13 -15 29 -45 16 -30 29 -59 29 -65z m30 -70 c0 -5
-6 1 -14 15 -8 14 -14 30 -14 35 0 6 6 -1 14 -15 8 -14 14 -29 14 -35z m35
-81 c15 -37 25 -68 23 -70 -2 -3 -13 19 -25 48 -11 29 -23 61 -27 71 -4 9 -5
17 -2 17 3 0 17 -30 31 -66z m45 -129 c0 -5 -4 -3 -9 5 -5 8 -9 22 -9 30 0 16
17 -16 18 -35z m88 -287 c-3 -8 -6 -5 -6 6 -1 11 2 17 5 13 3 -3 4 -12 1 -19z
m20 -80 c-3 -8 -6 -5 -6 6 -1 11 2 17 5 13 3 -3 4 -12 1 -19z m20 -90 c-3 -8
-6 -5 -6 6 -1 11 2 17 5 13 3 -3 4 -12 1 -19z m-783 -3178 c-32 -38 -60 -70
-62 -70 -5 0 8 18 67 88 24 28 45 52 48 52 2 0 -22 -31 -53 -70z m-102 -117
c-51 -64 -292 -297 -397 -385 -229 -190 -574 -414 -769 -497 -79 -34 -51 -14
52 37 114 57 186 101 178 109 -3 4 -15 -2 -26 -12 -11 -10 -22 -16 -25 -13
-10 10 25 31 58 34 17 2 34 9 35 14 2 6 12 10 22 10 10 0 26 10 34 22 9 12 16
19 16 15 0 -7 100 51 110 63 3 4 13 9 23 13 10 4 15 11 12 17 -6 9 8 14 28 11
4 0 7 6 7 15 0 10 5 14 16 10 8 -3 12 -2 9 4 -3 6 1 13 9 16 9 3 16 11 16 16
0 5 -17 -1 -37 -13 -23 -14 -33 -17 -26 -8 7 9 10 19 6 23 -4 4 0 4 8 1 10 -4
29 5 48 20 17 15 31 22 31 16 0 -6 -4 -11 -10 -11 -5 0 -10 -8 -10 -17 0 -14
2 -15 9 -5 4 8 11 13 15 13 20 -3 26 0 20 11 -4 6 -3 8 3 5 6 -4 23 5 37 18
15 14 31 25 36 25 5 0 7 7 3 16 -4 12 -7 13 -14 3 -4 -8 -10 -11 -13 -8 -3 2
-1 11 5 19 8 13 11 13 23 -3 12 -15 15 -15 26 -2 10 12 10 15 -4 15 -9 0 -16
5 -16 10 0 6 4 10 9 10 6 0 13 -4 16 -10 3 -5 11 -10 16 -10 6 0 7 5 4 10 -4
6 -1 9 7 8 7 -2 12 3 10 10 -1 8 1 11 6 8 15 -9 351 304 352 328 0 5 -8 2 -17
-5 -16 -13 -17 -12 -5 3 8 10 19 16 25 15 7 -1 11 4 9 11 -1 8 2 11 7 8 5 -3
14 1 21 9 27 33 20 12 -8 -22z m-92 -47 c0 -2 -8 -10 -17 -17 -16 -13 -17 -12
-4 4 13 16 21 21 21 13z m-47 -51 c-3 -8 -9 -15 -14 -15 -4 0 -17 -10 -29 -22
-11 -12 -20 -17 -20 -10 0 6 13 21 30 33 16 12 26 27 23 32 -3 6 -1 7 5 3 6
-4 9 -13 5 -21z m-93 2 c0 -2 -10 -12 -22 -23 l-23 -19 19 23 c18 21 26 27 26
19z m35 -67 c3 -5 0 -10 -8 -10 -7 0 -28 -15 -45 -32 -46 -49 -103 -98 -113
-98 -5 0 -9 -7 -9 -15 0 -9 -6 -12 -15 -9 -9 4 -15 0 -15 -10 0 -9 -7 -16 -15
-16 -8 0 -15 3 -15 6 0 8 27 34 37 34 15 0 124 110 118 119 -3 5 0 13 6 17 8
4 9 3 5 -4 -12 -20 10 -13 29 8 20 22 31 25 40 10z m-303 -181 c-12 -5 -22
-14 -22 -20 0 -7 -3 -9 -7 -6 -9 10 28 48 40 40 6 -3 1 -10 -11 -14z m-2 -79
c0 -5 -9 -14 -20 -20 -16 -9 -20 -8 -20 5 0 9 4 14 9 10 5 -3 12 -1 16 5 8 13
15 13 15 0z m-199 -149 c-17 -16 -40 -32 -51 -36 -12 -4 -19 -9 -16 -13 4 -3
-8 -12 -25 -19 -51 -21 -45 -8 10 23 27 16 47 33 44 39 -4 5 -3 7 1 3 5 -4 17
2 29 13 33 31 41 22 8 -10z m-251 -91 c-8 -5 -19 -10 -25 -10 -5 0 -3 5 5 10
8 5 20 10 25 10 6 0 3 -5 -5 -10z m-3405 -224 c66 -32 176 -80 245 -107 69
-28 134 -54 145 -59 45 -22 -33 4 -145 47 -113 45 -340 151 -370 173 -23 17
-5 10 125 -54z m3080 -46 c-133 -64 -441 -177 -452 -166 -4 4 110 46 141 52
40 7 97 34 91 43 -3 5 3 7 13 4 22 -5 123 37 116 49 -3 4 1 5 9 3 7 -3 38 6
68 20 30 13 59 24 64 24 6 0 -17 -14 -50 -29z m-2590 -150 c13 -5 14 -9 5 -9
-8 0 -24 4 -35 9 -13 5 -14 9 -5 9 8 0 24 -4 35 -9z m2080 -36 c-27 -7 -54
-13 -60 -13 -17 2 69 27 90 27 11 0 -2 -6 -30 -14z m-1968 0 c-3 -3 -12 -4
-19 -1 -8 3 -5 6 6 6 11 1 17 -2 13 -5z m40 -10 c-3 -3 -12 -4 -19 -1 -8 3 -5
6 6 6 11 1 17 -2 13 -5z m68 -14 c25 -11 -1 -11 -35 0 -20 6 -21 8 -5 8 11 0
29 -3 40 -8z m1745 -6 c-25 -8 -52 -13 -60 -11 -8 2 5 8 30 14 65 16 83 13 30
-3z m-1693 -10 c-3 -3 -12 -4 -19 -1 -8 3 -5 6 6 6 11 1 17 -2 13 -5z m46 -11
c-7 -2 -19 -2 -25 0 -7 3 -2 5 12 5 14 0 19 -2 13 -5z m1560 0 c-7 -2 -19 -2
-25 0 -7 3 -2 5 12 5 14 0 19 -2 13 -5z m-1510 -10 c-7 -2 -19 -2 -25 0 -7 3
-2 5 12 5 14 0 19 -2 13 -5z m1464 1 c-3 -3 -12 -4 -19 -1 -8 3 -5 6 6 6 11 1
17 -2 13 -5z m-102 -14 c3 -5 -1 -10 -10 -10 -9 0 -13 5 -10 10 3 6 8 10 10
10 2 0 7 -4 10 -10z m58 3 c-7 -2 -19 -2 -25 0 -7 3 -2 5 12 5 14 0 19 -2 13
-5z m-1310 -10 c-7 -2 -19 -2 -25 0 -7 3 -2 5 12 5 14 0 19 -2 13 -5z m44 -9
c-3 -3 -12 -4 -19 -1 -8 3 -5 6 6 6 11 1 17 -2 13 -5z m1151 -1 c-10 -2 -26
-2 -35 0 -10 3 -2 5 17 5 19 0 27 -2 18 -5z m-1071 -9 c-3 -3 -12 -4 -19 -1
-8 3 -5 6 6 6 11 1 17 -2 13 -5z m1000 0 c-3 -3 -12 -4 -19 -1 -8 3 -5 6 6 6
11 1 17 -2 13 -5z m-919 -11 c-10 -2 -26 -2 -35 0 -10 3 -2 5 17 5 19 0 27 -2
18 -5z m840 0 c-10 -2 -28 -2 -40 0 -13 2 -5 4 17 4 22 1 32 -1 23 -4z m-121
-9 c-3 -3 -12 -4 -19 -1 -8 3 -5 6 6 6 11 1 17 -2 13 -5z m-479 -11 c-10 -2
-28 -2 -40 0 -13 2 -5 4 17 4 22 1 32 -1 23 -4z m89 1 c-3 -3 -12 -4 -19 -1
-8 3 -5 6 6 6 11 1 17 -2 13 -5z m200 0 c-3 -3 -12 -4 -19 -1 -8 3 -5 6 6 6
11 1 17 -2 13 -5z m80 0 c-3 -3 -12 -4 -19 -1 -8 3 -5 6 6 6 11 1 17 -2 13 -5z"/>
<path d="M4840 8729 c-824 -58 -1646 -421 -2234 -989 -374 -360 -676 -811
-859 -1280 -235 -604 -297 -1287 -177 -1958 58 -322 172 -667 316 -953 26 -53
41 -95 38 -106 -4 -12 -3 -14 3 -6 6 8 18 -4 37 -40 177 -320 375 -578 652
-847 435 -423 959 -731 1524 -895 851 -246 1756 -167 2533 221 517 258 935
600 1283 1049 407 524 648 1119 741 1830 23 183 24 647 1 840 -49 405 -146
736 -322 1100 -389 804 -1018 1402 -1843 1753 -519 222 -1121 321 -1693 281z
m399 -274 c24 -3 64 -16 87 -30 149 -87 131 -360 -28 -439 -47 -24 -63 -26
-171 -26 l-120 0 7 163 c3 89 9 204 13 255 l6 92 81 -5 c44 -3 101 -8 125 -10z
m-419 -27 c1 -13 11 -125 23 -250 l23 -227 -21 -5 c-11 -3 -34 -6 -52 -6 -36
0 -31 -25 -58 265 -8 88 -17 177 -20 197 -6 41 0 45 68 47 32 1 37 -2 37 -21z
m965 -31 l50 -13 12 -115 c13 -123 40 -326 49 -372 6 -28 5 -28 -33 -22 -71
12 -73 14 -73 53 0 74 -4 78 -91 91 -43 7 -83 10 -87 7 -4 -2 -16 -25 -27 -50
-19 -44 -21 -46 -55 -39 -75 13 -77 2 39 208 136 243 149 265 158 265 4 0 31
-6 58 -13z m-1283 -37 c32 -25 52 -72 44 -104 -3 -13 -17 -38 -31 -54 l-25
-30 28 -5 c43 -9 80 -44 92 -88 16 -58 -17 -124 -80 -158 -44 -25 -229 -75
-239 -66 -2 3 -28 103 -56 223 -28 119 -55 226 -58 238 -7 19 0 23 75 42 111
28 217 29 250 2z m-506 -125 c7 -19 14 -38 14 -42 0 -5 -36 -21 -80 -37 -44
-15 -82 -32 -85 -36 -3 -4 2 -28 11 -53 l16 -46 79 30 c44 16 84 29 88 29 9 0
37 -78 30 -83 -2 -2 -26 -12 -54 -22 -27 -10 -64 -24 -82 -32 l-32 -13 21 -50
c24 -57 23 -57 142 -8 38 15 70 27 71 26 1 -2 8 -22 17 -45 l16 -41 -144 -57
c-80 -32 -146 -56 -148 -54 -9 9 -175 464 -171 468 6 5 258 100 268 101 4 0
15 -16 23 -35z m2542 -76 c45 -22 105 -92 100 -117 -2 -8 -19 -23 -38 -33
l-35 -19 -17 34 c-32 63 -84 90 -129 66 -36 -20 -24 -64 29 -110 107 -95 121
-182 38 -259 -31 -29 -107 -39 -161 -21 -71 24 -145 110 -145 170 0 17 6 20
43 20 40 0 44 -2 56 -35 22 -63 89 -93 142 -65 36 20 24 58 -40 118 -71 69
-81 87 -81 148 0 41 5 51 39 85 36 36 43 39 97 39 38 0 72 -7 102 -21z m-2976
-169 c28 -28 30 -35 26 -85 l-5 -55 32 0 c38 0 95 -36 112 -70 29 -57 2 -136
-64 -187 -55 -44 -183 -127 -187 -122 -16 19 -256 411 -256 418 0 8 167 112
200 124 8 3 37 6 63 6 41 1 53 -4 79 -29z m3342 -46 c45 -26 102 -60 128 -76
l48 -30 -22 -32 c-12 -17 -23 -33 -25 -35 -1 -2 -41 19 -89 48 -48 28 -87 50
-88 49 -1 -2 -14 -22 -29 -45 -15 -24 -27 -45 -27 -47 0 -3 33 -24 73 -47 39
-23 73 -43 75 -45 4 -3 -12 -32 -32 -58 -14 -17 -18 -16 -91 30 -44 27 -80 43
-83 37 -36 -52 -53 -84 -48 -91 3 -5 43 -32 90 -61 l85 -53 -26 -34 c-14 -19
-27 -34 -30 -34 -3 0 -186 120 -246 161 -4 3 29 64 76 135 46 71 103 162 128
201 24 40 46 73 48 73 2 0 40 -21 85 -46z m-1369 -258 c389 -67 738 -213 1066
-445 193 -137 458 -393 558 -541 29 -42 12 -26 -58 57 -29 35 -57 60 -62 57
-5 -3 -9 -2 -8 3 3 20 -2 32 -13 29 -7 -1 -9 -1 -5 2 5 2 -6 19 -24 38 -18 18
-37 30 -42 27 -6 -3 -7 -2 -4 4 8 13 -131 146 -145 137 -6 -4 -8 -3 -5 3 9 14
-19 37 -34 27 -8 -4 -9 -3 -5 4 4 7 -5 23 -21 37 -30 26 -49 33 -37 13 4 -7 4
-10 0 -6 -4 3 -7 9 -6 13 3 15 -51 53 -73 51 -14 -2 -24 2 -24 10 0 6 7 10 16
7 14 -4 14 -3 1 5 -10 8 -19 7 -29 -1 -11 -9 -13 -9 -8 0 4 7 -1 14 -14 18
-15 5 -18 9 -9 15 9 6 9 9 0 15 -7 4 -17 1 -22 -6 -7 -11 -8 -9 -4 5 6 17 5
17 -11 5 -15 -12 -16 -12 -10 3 3 10 1 20 -5 24 -7 4 -8 3 -4 -4 4 -7 1 -12
-8 -12 -9 0 -13 6 -10 14 3 8 0 17 -7 22 -8 5 -10 3 -4 -6 5 -8 3 -11 -4 -9
-7 3 -13 9 -13 14 -1 16 -31 34 -55 35 -14 0 -27 -10 -36 -29 -13 -26 -13 -29
1 -24 11 5 13 3 7 -6 -6 -10 -3 -11 14 -1 12 6 25 18 28 26 3 8 10 14 15 14 7
0 6 -5 -1 -13 -6 -8 -7 -18 -3 -22 4 -5 2 -5 -5 -1 -16 9 -29 -14 -13 -24 7
-4 10 -12 7 -17 -3 -5 3 -10 14 -10 12 -1 24 7 29 20 l9 22 0 -22 c1 -12 8
-28 16 -36 8 -8 11 -18 7 -22 -4 -4 8 -5 26 -2 17 3 32 1 32 -4 0 -5 -8 -9
-17 -9 -10 -1 -4 -7 15 -15 21 -9 31 -19 26 -26 -4 -7 -3 -9 4 -5 6 3 13 -2
17 -13 3 -10 19 -24 35 -31 16 -7 27 -16 24 -21 -3 -5 0 -9 7 -9 6 0 17 -7 23
-15 6 -9 22 -17 34 -18 14 -1 21 -6 18 -14 -3 -8 2 -13 14 -13 13 0 17 -5 14
-14 -4 -12 1 -14 23 -10 19 3 24 2 14 -5 -11 -7 -9 -11 8 -20 12 -7 19 -16 17
-20 -3 -5 3 -16 13 -25 10 -10 21 -14 23 -9 3 4 4 3 2 -3 -3 -13 50 -64 66
-64 5 0 7 -7 3 -15 -3 -10 0 -15 8 -13 7 2 13 -3 14 -10 0 -7 5 -16 11 -20 5
-4 23 -24 38 -44 16 -21 32 -35 37 -32 5 3 8 1 7 -4 -4 -12 62 -102 74 -102 5
0 6 -4 3 -10 -3 -5 -1 -10 4 -10 6 0 11 -4 11 -8 0 -5 25 -46 56 -93 84 -126
209 -381 239 -489 14 -48 -3 -14 -40 80 -151 385 -435 755 -775 1011 -434 326
-884 482 -1426 496 -299 8 -467 -12 -750 -87 -577 -153 -1110 -557 -1417
-1071 -314 -529 -419 -1152 -296 -1764 123 -614 481 -1160 994 -1520 417 -292
831 -433 1325 -452 573 -21 1129 164 1587 530 112 89 292 266 377 372 393 484
594 1126 547 1743 -7 92 -14 185 -16 207 -2 22 3 4 12 -40 25 -126 24 -564 -2
-715 -10 -63 -19 -129 -19 -147 -1 -17 -4 -29 -8 -26 -5 2 -8 -4 -8 -14 0 -10
-14 -65 -30 -122 -16 -57 -27 -108 -24 -112 2 -5 12 -6 22 -3 10 4 13 3 6 -3
-10 -7 -37 -51 -39 -63 -1 -3 -8 -21 -16 -40 -23 -52 -31 -90 -19 -90 5 0 10
8 10 18 0 12 2 14 8 4 11 -17 42 -4 35 14 -3 8 0 14 6 14 6 0 11 9 11 19 0 11
7 27 17 36 14 14 14 18 2 26 -8 5 -9 9 -4 9 6 0 3 5 -5 10 -13 8 -13 10 2 10
9 0 18 -8 20 -17 3 -12 8 -4 16 20 6 21 8 46 5 54 -4 10 -2 14 4 10 6 -4 13 3
16 15 4 13 1 26 -6 30 -9 5 -8 8 4 8 11 0 22 30 43 120 16 67 30 119 33 117 8
-9 -49 -241 -87 -350 -73 -212 -176 -427 -287 -596 -206 -317 -521 -626 -826
-810 -130 -78 -357 -184 -482 -224 -128 -42 -235 -70 -242 -64 -6 7 56 27 83
27 16 0 24 6 24 18 0 12 3 13 8 5 6 -10 20 -9 65 4 57 16 80 36 32 27 -15 -2
-25 0 -25 7 0 7 16 9 51 5 36 -5 48 -3 43 5 -4 8 0 9 15 4 18 -5 24 -2 28 15
4 16 8 18 14 9 6 -10 13 -10 31 -2 13 6 32 14 43 18 16 5 17 8 5 15 -9 6 -17
5 -22 -3 -5 -8 -8 -6 -8 6 0 9 4 17 9 17 5 0 17 3 27 7 11 4 15 3 10 -5 -3 -6
-2 -13 4 -17 5 -3 10 3 10 14 0 29 -11 52 -21 45 -5 -3 -7 -10 -4 -15 4 -5 1
-9 -4 -9 -6 0 -11 6 -12 13 0 9 -2 9 -6 0 -6 -15 -23 -17 -23 -3 0 5 12 16 28
25 34 20 25 17 -65 -19 -40 -16 -70 -32 -68 -37 3 -4 -5 -5 -17 -1 -16 4 -19
2 -13 -8 5 -8 4 -11 -3 -6 -6 3 -62 -9 -124 -28 -353 -106 -740 -125 -1148
-56 -248 42 -569 166 -805 313 -250 154 -452 329 -637 550 -50 59 -95 107
-101 107 -6 0 -8 3 -4 6 10 11 -53 94 -71 94 -12 0 -13 3 -5 8 16 10 4 28 -25
36 -17 6 -20 11 -13 20 7 8 3 24 -14 52 -13 21 -27 39 -32 38 -17 -2 -41 20
-35 35 4 10 1 13 -11 8 -9 -3 -19 -2 -22 3 -3 4 1 11 7 13 7 3 4 6 -7 7 -20 1
-20 1 -1 15 19 15 19 16 -6 19 -8 1 -13 17 -12 46 1 25 -1 39 -3 33 -3 -9 -14
-11 -30 -7 -18 5 -24 3 -19 -5 4 -6 14 -11 22 -11 17 0 18 -12 3 -27 -7 -7 -6
-15 5 -25 8 -9 17 -28 19 -43 2 -14 10 -31 18 -37 11 -7 9 -9 -9 -5 -12 3 -20
1 -16 -4 3 -5 14 -9 25 -9 11 0 19 -6 18 -12 -3 -25 1 -39 10 -33 5 3 13 0 17
-6 4 -8 3 -9 -4 -5 -21 13 -13 -5 10 -24 l23 -19 -25 4 c-22 4 -23 3 -8 -9 10
-7 14 -17 10 -22 -4 -4 0 -3 9 4 14 10 18 10 23 -3 4 -11 13 -14 28 -10 23 6
23 6 2 -7 -12 -7 -19 -20 -17 -28 3 -8 -5 -4 -16 10 -11 14 -21 21 -21 16 0
-17 33 -46 54 -47 21 0 21 -1 1 -9 -11 -5 -14 -9 -7 -9 7 -1 11 -5 8 -10 -3
-5 1 -12 10 -15 8 -3 13 -10 9 -15 -3 -5 4 -13 16 -16 17 -6 19 -9 8 -16 -10
-6 -11 -9 -1 -9 6 0 12 -7 12 -15 0 -9 11 -20 25 -25 14 -5 25 -12 25 -14 0
-3 -7 -3 -15 0 -8 4 -15 3 -15 0 0 -4 11 -11 25 -16 16 -6 23 -14 19 -25 -4
-10 0 -15 11 -15 9 0 13 -5 10 -10 -3 -6 1 -10 9 -10 10 0 13 -6 9 -17 -4 -11
-3 -14 5 -9 8 4 12 0 12 -11 0 -15 2 -16 10 -3 8 13 10 12 10 -3 0 -25 38 -77
56 -77 8 0 13 -6 11 -12 -1 -8 8 -13 21 -12 12 0 22 -3 22 -8 0 -4 -5 -8 -10
-8 -6 0 4 -16 22 -35 17 -20 38 -33 45 -30 8 3 11 0 7 -6 -7 -13 30 -50 54
-53 9 -2 16 -7 15 -12 -3 -15 29 -44 41 -37 6 3 8 3 4 -2 -8 -9 80 -82 94 -78
4 2 8 -4 8 -12 0 -8 7 -15 15 -15 8 0 15 -4 15 -8 0 -9 54 -47 192 -135 98
-63 315 -170 428 -211 101 -37 123 -47 85 -39 -47 10 -230 85 -335 138 -185
93 -338 195 -515 344 -492 414 -805 983 -901 1636 -27 181 -25 545 5 720 73
435 189 739 411 1070 220 329 496 584 860 795 277 161 665 283 1015 319 50 5
187 8 305 6 174 -3 244 -8 365 -29z m1642 -178 c-67 -77 -126 -146 -132 -154
-7 -10 0 -22 30 -46 22 -18 55 -46 72 -63 l33 -30 -28 -36 -28 -37 -99 89
c-55 49 -99 93 -98 98 2 6 -5 7 -14 4 -13 -5 -11 1 7 24 59 72 179 214 238
281 l64 72 39 -31 39 -31 -123 -140z m-4199 6 c61 -30 96 -69 130 -143 69
-151 -47 -341 -209 -341 -76 0 -125 18 -179 67 -90 81 -119 216 -66 308 71
121 208 167 324 109z m3412 -198 c0 -3 -4 -8 -10 -11 -5 -3 -10 -1 -10 4 0 6
5 11 10 11 6 0 10 -2 10 -4z m1224 -342 c-75 -115 -139 -212 -143 -216 -3 -3
-20 13 -38 37 l-32 43 29 38 c16 22 30 42 30 46 0 4 -23 35 -52 70 -28 35 -53
65 -54 67 -2 2 -26 -6 -55 -18 -28 -12 -52 -21 -53 -19 0 2 -15 21 -33 44
l-31 40 112 37 c61 20 169 59 240 85 l129 48 44 -47 44 -47 -137 -208z m-2211
252 c18 -7 77 -53 132 -100 202 -175 446 -315 694 -396 68 -22 212 -58 320
-80 183 -37 198 -42 224 -70 15 -17 27 -36 27 -43 0 -6 -9 2 -19 19 -21 34
-50 47 -146 63 -139 24 -153 26 -217 42 -34 8 -52 8 -70 -1 -20 -10 -21 -9 -6
2 15 13 11 16 -30 27 -26 8 -73 22 -105 33 -32 10 -63 15 -69 12 -7 -5 -8 -2
-3 6 6 10 4 12 -8 7 -10 -4 -17 -2 -17 4 0 6 -7 8 -16 5 -8 -3 -12 -2 -9 4 6
10 -15 14 -44 11 -7 -2 -10 2 -7 7 9 14 -64 45 -78 32 -7 -5 -17 -6 -21 -2 -5
4 -5 2 -2 -5 4 -6 1 -13 -5 -16 -7 -3 4 -12 25 -21 42 -18 51 -31 11 -16 -27
11 -48 5 -39 -11 4 -5 -2 -9 -11 -9 -16 0 -16 1 -1 18 18 20 13 32 -11 32 -8
0 -12 -6 -9 -14 5 -11 0 -13 -25 -5 -34 9 -44 16 -36 25 4 3 15 1 27 -5 12 -7
22 -8 26 -1 11 17 -45 24 -62 7 -14 -13 -13 -16 6 -22 12 -3 19 -11 16 -16 -4
-5 1 -12 9 -15 9 -3 14 -9 11 -13 -2 -4 3 -8 12 -8 12 0 11 5 -7 19 -26 21
-13 25 16 3 10 -8 27 -15 37 -15 11 0 15 -5 11 -11 -5 -8 -1 -8 14 0 15 8 27
7 51 -5 27 -14 30 -18 19 -32 -12 -14 -10 -14 10 -3 13 7 26 10 30 7 3 -3 1
-6 -5 -6 -6 0 -9 -9 -6 -20 5 -19 7 -20 23 -5 16 14 18 14 23 0 4 -10 0 -15
-11 -16 -10 0 -3 -7 16 -15 18 -8 37 -12 42 -9 4 3 10 0 12 -5 3 -11 95 -40
133 -43 11 -1 22 -5 25 -8 3 -4 70 -20 150 -37 132 -28 147 -33 173 -62 l28
-32 -4 -716 c-3 -628 -5 -728 -20 -805 -16 -80 -55 -224 -73 -271 -5 -12 -4
-17 3 -13 6 4 10 -7 10 -27 0 -21 -7 -37 -19 -45 -20 -12 -21 -11 -12 13 3 9
10 14 14 11 5 -3 6 4 3 16 -5 19 -7 18 -20 -11 -12 -29 -11 -35 3 -51 15 -17
15 -21 1 -42 -15 -23 -14 -25 9 -36 23 -10 24 -9 14 8 -15 28 -12 35 7 20 15
-13 15 -12 4 6 -10 16 -9 27 4 59 12 29 19 36 25 26 5 -9 4 -20 -2 -27 -6 -7
-7 -13 -2 -13 5 0 1 -7 -9 -14 -15 -12 -15 -14 -2 -19 8 -4 12 -13 9 -21 -4
-10 0 -13 13 -11 10 2 20 4 23 4 3 1 -2 6 -10 11 -13 8 -13 10 1 10 9 0 19 9
22 20 3 13 0 20 -9 20 -17 0 -18 10 -3 30 9 13 10 12 5 -2 -3 -11 0 -18 7 -18
7 0 28 45 47 99 19 55 36 98 38 96 5 -5 -41 -146 -79 -243 -42 -105 -141 -300
-201 -395 -188 -297 -467 -573 -838 -829 -113 -78 -311 -200 -316 -195 -2 2
31 25 73 52 65 41 73 50 57 57 -13 6 -10 7 10 3 25 -5 28 -4 18 8 -10 11 -9
17 5 28 16 13 17 12 4 -4 -14 -18 -13 -18 38 -8 2 1 -2 7 -8 14 -11 14 -5 27
13 27 6 0 5 -4 -3 -9 -8 -6 -9 -11 -3 -15 6 -4 23 2 39 11 21 13 28 26 28 48
0 24 4 30 21 29 11 0 21 6 21 13 0 7 -5 13 -10 13 -5 0 2 9 17 21 14 11 31 17
37 13 7 -4 9 -3 5 4 -3 6 2 15 11 21 17 10 17 10 1 11 -10 0 -18 -3 -18 -8 0
-13 -58 -34 -82 -29 -18 3 -16 5 8 6 19 1 39 11 55 28 13 15 16 21 7 14 -10
-7 -18 -10 -18 -5 0 5 -4 4 -8 -2 -11 -17 -68 -34 -79 -23 -6 6 -14 4 -22 -5
-10 -12 -9 -13 10 -9 15 4 20 3 15 -5 -4 -7 -2 -12 3 -12 6 0 11 -4 11 -8 0
-5 -7 -9 -15 -9 -8 0 -15 4 -15 9 0 5 -5 6 -10 3 -6 -4 -7 -11 -4 -17 4 -7 2
-8 -4 -4 -8 5 -12 0 -12 -13 0 -12 -4 -21 -10 -21 -5 0 -7 6 -5 13 4 9 -5 12
-29 11 -43 -2 -57 -10 -49 -29 3 -8 0 -15 -7 -15 -6 0 -8 5 -5 10 10 16 -5 12
-41 -11 -19 -11 -31 -26 -28 -31 4 -7 2 -8 -4 -4 -15 9 -55 -18 -44 -29 4 -5
2 -5 -5 -1 -6 3 -40 -12 -74 -34 -34 -22 -70 -40 -79 -40 -9 0 -55 23 -101 51
-46 28 -106 64 -133 81 -166 100 -415 282 -561 412 -135 120 -316 318 -382
417 -17 26 -30 36 -41 32 -12 -3 -13 -2 -5 4 9 7 8 15 -6 36 -9 15 -21 24 -25
20 -4 -5 -7 -3 -6 2 5 23 -1 36 -12 29 -7 -4 -10 -4 -6 1 7 7 -27 85 -38 85
-3 0 -3 -10 0 -22 3 -13 3 -17 0 -10 -3 6 -9 10 -13 8 -4 -3 -7 6 -7 19 0 13
4 21 8 19 4 -3 8 0 8 5 0 6 -4 11 -10 11 -5 0 -10 7 -10 15 0 12 -4 13 -18 6
-14 -7 -19 -6 -19 4 0 7 6 11 14 8 7 -3 13 0 13 6 0 6 -5 11 -10 11 -6 0 -9 3
-9 8 1 4 -4 22 -11 40 -9 25 -15 30 -21 20 -7 -10 -9 -9 -9 5 0 15 -3 16 -22
6 -13 -6 -20 -8 -15 -4 4 5 0 19 -8 31 -15 23 -11 54 7 54 7 0 7 -4 0 -13 -7
-8 -7 -19 2 -36 8 -13 16 -19 19 -13 4 5 0 15 -8 22 -8 7 -12 17 -9 22 3 5 12
1 20 -9 12 -16 12 -14 2 13 -9 25 -15 30 -36 26 -28 -5 -42 11 -42 48 0 20 2
22 11 10 9 -13 10 -13 6 0 -2 8 -12 15 -23 15 -10 -1 -22 4 -26 10 -4 5 -8 0
-8 -13 0 -12 5 -21 11 -20 6 2 13 -3 14 -10 2 -8 1 -8 -2 -1 -4 8 -8 7 -14 -2
-6 -10 -9 -11 -9 -1 0 6 -5 12 -11 12 -5 0 -7 -4 -4 -10 3 -5 1 -10 -6 -10 -7
0 -5 -8 6 -20 10 -11 29 -20 42 -20 27 0 29 -9 7 -36 -14 -18 -15 -18 -4 4 9
19 8 22 -11 22 -18 0 -19 -2 -9 -15 10 -12 10 -15 -1 -15 -8 -1 -1 -8 15 -16
21 -12 25 -19 17 -27 -9 -9 -14 -8 -22 3 -9 13 -10 13 -6 0 2 -8 11 -15 20
-15 23 0 34 -15 11 -16 -12 0 -14 -2 -5 -6 10 -4 10 -7 2 -13 -9 -5 -7 -11 5
-21 11 -9 15 -9 10 -2 -5 9 -2 11 8 7 9 -3 13 -10 10 -15 -3 -5 3 -9 13 -9 15
0 16 -2 3 -10 -10 -6 -16 -6 -18 0 -2 6 -8 10 -13 10 -6 0 -5 -8 1 -20 6 -11
14 -19 18 -16 14 8 44 -22 36 -36 -12 -19 -14 -38 -3 -38 5 0 9 -8 9 -19 0
-22 23 -44 35 -33 5 4 5 1 1 -6 -5 -8 1 -16 16 -21 17 -7 19 -10 6 -10 -10 -1
-18 -5 -18 -11 0 -5 8 -14 18 -19 9 -6 13 -11 9 -11 -5 0 0 -13 9 -29 10 -17
22 -27 27 -24 6 3 7 1 3 -5 -4 -7 -3 -12 2 -12 5 0 15 -13 22 -30 7 -17 17
-27 24 -23 6 3 8 3 4 -2 -7 -8 13 -38 89 -134 175 -218 426 -440 713 -630 85
-57 160 -108 165 -114 17 -17 -11 0 -175 109 -465 307 -802 670 -1010 1083
-136 273 -199 512 -220 840 -11 170 -12 1132 -1 1299 6 100 7 105 37 132 24
21 50 31 105 40 41 6 125 23 188 36 385 82 709 249 993 512 25 24 59 47 75 52
15 4 146 9 291 9 203 1 270 -2 295 -13z m1214 -83 c-4 -3 1 -12 11 -20 15 -13
15 -13 -5 -3 -24 11 -31 30 -11 30 6 0 8 -3 5 -7z m-4139 -255 c79 -49 149
-91 157 -94 8 -3 34 25 70 75 l58 80 33 -26 c19 -14 34 -27 34 -29 0 -2 -36
-58 -80 -124 l-81 -120 -37 24 c-20 12 -84 52 -142 88 -58 36 -131 81 -162
102 l-58 36 22 45 c12 25 26 41 32 38 6 -4 75 -47 154 -95z m5567 -243 c-1
-122 -75 -201 -211 -226 -63 -12 -142 6 -188 42 -23 18 -126 159 -126 173 0 2
8 7 18 10 10 3 7 4 -8 3 -15 -1 -26 4 -27 13 -2 10 67 56 214 141 l218 126 55
-111 c49 -98 55 -117 55 -171z m-2050 149 c14 -9 22 -20 19 -25 -3 -5 3 -9 13
-9 11 0 27 -6 37 -13 16 -12 16 -14 2 -14 -9 0 -16 4 -16 9 0 4 -9 8 -21 8
-24 0 -51 24 -41 35 4 5 -1 5 -10 2 -18 -6 -32 5 -21 17 9 8 11 8 38 -10z
m122 -70 c-3 -3 -12 -4 -19 -1 -8 3 -5 6 6 6 11 1 17 -2 13 -5z m-3877 -44 c0
-4 -18 -46 -40 -95 -27 -62 -36 -91 -27 -94 7 -2 29 -12 50 -22 l37 -17 14 31
c7 18 21 56 30 85 19 57 25 60 73 34 l31 -17 -34 -84 c-19 -47 -33 -85 -31
-86 19 -13 92 -34 97 -28 4 4 22 43 40 86 18 43 37 80 41 83 7 4 63 -19 78
-32 4 -4 -120 -274 -127 -274 -9 0 -417 182 -425 189 -6 6 86 235 109 273 5 7
84 -23 84 -32z m3979 20 c8 -4 2 -7 -17 -6 -16 0 -28 4 -26 8 2 3 -2 9 -8 12
-7 3 -2 3 12 0 14 -4 31 -10 39 -14z m-109 0 c0 -5 -2 -10 -4 -10 -3 0 -8 5
-11 10 -3 6 -1 10 4 10 6 0 11 -4 11 -10z m35 -10 c3 -5 1 -10 -4 -10 -6 0
-11 5 -11 10 0 6 2 10 4 10 3 0 8 -4 11 -10z m75 -20 c0 -5 -5 -10 -11 -10 -5
0 -7 5 -4 10 3 6 8 10 11 10 2 0 4 -4 4 -10z m1044 -118 c99 -152 247 -444
232 -459 -2 -2 -14 22 -26 54 -37 92 -147 296 -222 410 -38 57 -64 102 -58 98
6 -4 39 -50 74 -103z m-1092 56 c-7 -7 -12 -8 -12 -2 0 14 12 26 19 19 2 -3
-1 -11 -7 -17z m636 -690 l-3 -603 -5 455 c-5 456 -3 750 6 750 2 0 3 -271 2
-602z m1445 345 l25 -58 -36 -30 c-59 -48 -140 -122 -250 -226 l-102 -97 -14
26 c-30 60 -29 69 13 107 l39 36 -31 90 -32 90 -52 -6 c-50 -6 -53 -5 -63 20
-29 76 -34 72 87 80 59 4 153 10 208 14 195 16 179 19 208 -46z m-6203 -52 c0
-5 3 -22 6 -38 5 -26 3 -31 -20 -37 -47 -12 -73 -97 -40 -130 35 -35 64 -18
113 67 45 79 72 100 134 105 73 6 113 -15 139 -76 18 -40 19 -53 10 -103 -14
-77 -53 -136 -105 -159 l-42 -19 -12 27 c-19 42 -15 56 20 72 44 21 69 88 46
128 -16 30 -52 40 -75 21 -9 -7 -29 -39 -45 -71 -66 -130 -197 -158 -259 -55
-43 70 -9 225 57 261 31 17 73 21 73 7z m5498 -256 c0 -5 -6 4 -13 20 -8 17
-14 37 -14 45 0 8 7 -1 14 -20 7 -19 13 -39 13 -45z m-99 -35 c0 -10 -3 -8 -9
5 -12 27 -12 43 0 25 5 -8 9 -22 9 -30z m118 -32 c-3 -8 -6 -5 -6 6 -1 11 2
17 5 13 3 -3 4 -12 1 -19z m-68 -148 c0 -8 -11 21 -24 65 -14 44 -24 85 -24
90 1 15 49 -138 48 -155z m836 100 c13 -12 22 -26 20 -31 -3 -4 -1 -9 4 -11 9
-3 14 -33 12 -80 -1 -15 -13 -41 -28 -58 -31 -34 -102 -63 -119 -49 -6 5 -14
6 -17 3 -4 -4 -22 5 -41 20 -69 52 -71 155 -4 211 28 24 38 27 90 23 43 -3 64
-10 83 -28z m-738 -62 c-3 -8 -6 -5 -6 6 -1 11 2 17 5 13 3 -3 4 -12 1 -19z
m-69 -178 c0 -14 -6 2 -14 35 -7 33 -13 67 -12 75 1 23 26 -82 26 -110z m89
98 c-3 -8 -6 -5 -6 6 -1 11 2 17 5 13 3 -3 4 -12 1 -19z m10 -50 c-3 -8 -6 -5
-6 6 -1 11 2 17 5 13 3 -3 4 -12 1 -19z m10 -50 c-3 -8 -6 -5 -6 6 -1 11 2 17
5 13 3 -3 4 -12 1 -19z m10 -70 c-3 -8 -6 -5 -6 6 -1 11 2 17 5 13 3 -3 4 -12
1 -19z m10 -100 c-3 -7 -5 -2 -5 12 0 14 2 19 5 13 2 -7 2 -19 0 -25z m10
-115 c-2 -16 -4 -5 -4 22 0 28 2 40 4 28 2 -13 2 -35 0 -50z m-5548 -19 c30
-35 24 -89 -14 -121 -37 -33 -80 -30 -117 7 -26 27 -30 36 -25 68 9 53 49 86
96 78 22 -3 45 -16 60 -32z m6111 21 c17 -9 30 -18 30 -21 0 -2 -9 0 -19 6
-77 41 -158 -35 -116 -107 l17 -28 -21 24 c-30 33 -27 76 8 112 33 33 58 36
101 14z m-1423 -37 c-3 -7 -5 -2 -5 12 0 14 2 19 5 13 2 -7 2 -19 0 -25z m-10
-210 c-2 -13 -4 -3 -4 22 0 25 2 35 4 23 2 -13 2 -33 0 -45z m870 -105 c-2
-16 -4 -3 -4 27 0 30 2 43 4 28 2 -16 2 -40 0 -55z m-880 5 c-3 -8 -6 -5 -6 6
-1 11 2 17 5 13 3 -3 4 -12 1 -19z m-12 -83 c-4 -25 -9 -44 -12 -41 -2 2 -1
25 2 51 4 25 9 44 12 41 2 -2 1 -25 -2 -51z m882 -47 c-2 -13 -4 -3 -4 22 0
25 2 35 4 23 2 -13 2 -33 0 -45z m-903 -57 c-4 -23 -9 -40 -11 -37 -3 3 -2 23
2 46 4 23 9 39 11 37 3 -2 2 -23 -2 -46z m893 -8 c-3 -10 -5 -4 -5 12 0 17 2
24 5 18 2 -7 2 -21 0 -30z m-10 -60 c-3 -10 -5 -4 -5 12 0 17 2 24 5 18 2 -7
2 -21 0 -30z m-5332 -55 c9 -40 19 -105 22 -144 l6 -72 -40 -42 c-34 -37 -46
-43 -91 -48 -50 -4 -53 -3 -92 36 l-40 40 -78 -73 c-42 -40 -80 -71 -83 -69
-4 2 -12 25 -18 51 l-12 47 74 67 c63 58 74 72 70 94 -6 30 -7 30 -104 7 l-76
-19 -11 46 c-6 25 -9 47 -8 49 4 3 436 100 452 101 7 1 19 -32 29 -71z m6094
56 c2 -2 -9 -4 -26 -4 -30 0 -30 -1 -47 -80 -10 -44 -21 -82 -26 -85 -4 -3
-85 11 -180 31 -94 20 -173 34 -176 32 -2 -3 -7 -18 -10 -35 -5 -25 -2 -32 12
-36 13 -3 9 -5 -10 -6 -20 -1 -27 3 -23 13 3 8 9 31 13 51 5 27 10 34 23 31 9
-3 84 -19 166 -36 83 -17 157 -34 166 -36 13 -4 20 13 34 85 l19 90 30 -6 c17
-3 33 -7 35 -9z m-858 -67 c-10 -9 -11 -8 -5 6 3 10 9 15 12 12 3 -3 0 -11 -7
-18z m-941 -22 c0 -8 -2 -15 -4 -15 -2 0 -6 7 -10 15 -3 8 -1 15 4 15 6 0 10
-7 10 -15z m-2985 -65 c-3 -5 -12 -10 -20 -10 -8 0 -17 5 -20 10 -4 6 5 10 20
10 15 0 24 -4 20 -10z m2960 -30 c-3 -5 -11 -10 -16 -10 -6 0 -7 5 -4 10 3 6
11 10 16 10 6 0 7 -4 4 -10z m1438 -7 c-7 -2 -21 -2 -30 0 -10 3 -4 5 12 5 17
0 24 -2 18 -5z m50 -10 c-7 -2 -19 -2 -25 0 -7 3 -2 5 12 5 14 0 19 -2 13 -5z
m-4403 -62 c-1 -13 -30 34 -30 48 0 9 7 3 15 -13 8 -15 15 -31 15 -35z m4453
52 c-7 -2 -19 -2 -25 0 -7 3 -2 5 12 5 14 0 19 -2 13 -5z m100 -20 c-7 -2 -19
-2 -25 0 -7 3 -2 5 12 5 14 0 19 -2 13 -5z m-710 -23 c3 -11 1 -18 -4 -15 -5
3 -12 -12 -15 -35 -4 -22 -10 -40 -15 -40 -4 0 -2 21 6 48 8 26 15 50 15 55 0
14 8 7 13 -13z m760 13 c-7 -2 -19 -2 -25 0 -7 3 -2 5 12 5 14 0 19 -2 13 -5z
m-75 -170 c78 -3 142 -10 142 -15 0 -5 -8 -7 -17 -4 -10 2 -116 8 -237 11
l-218 7 7 -23 c5 -19 4 -21 -4 -9 -6 8 -11 12 -11 8 0 -3 -3 -13 -6 -21 -4
-12 1 -15 19 -13 13 2 29 6 35 10 7 4 12 3 12 -2 0 -5 48 -14 108 -20 l107
-10 -146 5 c-143 5 -146 5 -152 -16 -5 -19 3 -26 26 -22 4 0 6 -5 5 -11 -2 -7
4 -11 12 -10 8 2 12 0 8 -4 -12 -12 53 -54 86 -55 24 -1 26 -3 8 -6 -27 -5
-25 -7 78 -85 77 -59 166 -135 119 -102 -23 16 -184 138 -314 238 -22 17 -42
32 -44 33 -3 2 27 100 36 116 5 9 151 9 341 0z m-265 -20 c-7 -2 -19 -2 -25 0
-7 3 -2 5 12 5 14 0 19 -2 13 -5z m-5479 -136 c25 -70 46 -132 46 -136 0 -8
-52 -31 -70 -31 -4 0 -20 35 -35 78 -15 42 -31 80 -34 85 -8 8 -101 -21 -101
-32 0 -4 11 -41 25 -81 14 -40 24 -74 22 -75 -6 -5 -70 -25 -72 -23 -1 2 -12
32 -25 68 -13 36 -26 68 -30 73 -7 8 -100 -21 -100 -32 0 -4 13 -47 30 -96 16
-49 29 -89 27 -90 -16 -10 -69 -26 -73 -22 -3 3 -27 66 -53 140 l-48 136 221
84 c122 47 222 85 222 84 1 -1 22 -60 48 -130z m5867 90 c-10 -9 -11 -8 -5 6
3 10 9 15 12 12 3 -3 0 -11 -7 -18z m-68 -24 c-7 -2 -19 -2 -25 0 -7 3 -2 5
12 5 14 0 19 -2 13 -5z m67 -3 c0 -5 -12 -10 -27 -9 l-28 1 25 8 c14 4 26 8
28 9 1 1 2 -3 2 -9z m-309 -61 c44 -34 81 -60 83 -58 2 2 11 30 20 63 10 32
19 56 22 53 5 -4 -23 -112 -33 -129 -2 -4 -26 9 -53 28 -27 20 -54 33 -60 29
-6 -3 -7 0 -4 9 3 9 2 16 -2 16 -11 0 -72 49 -61 50 4 0 44 -28 88 -61z m196
29 c-3 -8 -6 -5 -6 6 -1 11 2 17 5 13 3 -3 4 -12 1 -19z m-276 -25 c13 -16 12
-17 -3 -4 -10 7 -18 15 -18 17 0 8 8 3 21 -13z m244 -83 c-4 -12 -9 -19 -12
-17 -3 3 -2 15 2 27 4 12 9 19 12 17 3 -3 2 -15 -2 -27z m57 -109 c-6 -14 -7
-14 -10 2 -2 11 -18 32 -35 49 -32 30 -32 30 10 -2 29 -23 40 -37 35 -49z
m-215 -129 c105 -57 121 -70 117 -87 -4 -11 -11 -24 -16 -30 -5 -6 -5 2 1 17
10 26 8 29 -22 44 -34 18 -104 55 -203 110 -63 35 -79 41 -69 24 4 -6 -12 -10
-39 -10 -41 0 -46 3 -46 22 0 21 0 21 14 3 11 -16 17 -17 29 -7 12 10 16 10
19 0 3 -9 6 -9 12 0 5 8 -5 18 -29 28 -21 8 -38 14 -40 12 -5 -7 -25 -47 -25
-52 0 -2 14 -11 30 -20 17 -8 30 -10 30 -5 0 16 18 10 24 -8 6 -20 49 -43 78
-43 10 0 18 -5 18 -11 0 -8 6 -7 17 2 15 12 16 12 10 -5 -6 -14 -4 -17 8 -12
9 3 13 2 10 -3 -3 -5 4 -12 15 -16 11 -3 20 -11 20 -16 0 -5 -62 21 -137 59
-76 37 -139 68 -141 69 -2 0 6 20 18 43 l21 41 77 -41 c42 -23 132 -72 199
-108z m-237 103 c0 -12 -19 -12 -23 0 -4 9 -1 12 9 8 7 -3 14 -7 14 -8z
m-4790 -40 c7 -9 8 -15 2 -15 -5 0 -12 7 -16 15 -3 8 -4 15 -2 15 2 0 9 -7 16
-15z m-375 -113 c45 -97 50 -114 50 -179 0 -63 -3 -76 -30 -115 -51 -72 -160
-117 -250 -103 -68 10 -118 55 -187 168 -33 55 -58 100 -56 101 12 10 413 236
417 236 3 -1 29 -49 56 -108z m5263 99 c2 -1 -4 -8 -13 -18 -13 -12 -19 -13
-25 -4 -4 7 -11 12 -16 11 -5 -1 -10 2 -11 7 -2 6 44 9 65 4z m-4868 -21 c0
-5 -2 -10 -4 -10 -3 0 -8 5 -11 10 -3 6 -1 10 4 10 6 0 11 -4 11 -10z m4993
-117 c3 -5 -9 -8 -26 -8 -178 -3 -187 -4 -188 -27 -1 -19 -2 -19 -6 -5 -4 16
-14 18 -86 15 l-81 -3 -19 -35 c-10 -19 -13 -28 -5 -19 10 12 17 14 30 5 13
-8 21 -7 30 3 11 11 9 12 -9 7 -25 -8 -36 4 -22 24 6 10 9 11 9 3 0 -7 10 -13
23 -12 21 0 21 1 2 9 -16 7 -17 9 -3 9 9 1 28 -4 41 -10 22 -10 24 -14 13 -43
-6 -17 -11 -33 -13 -34 -1 -2 -17 -5 -35 -7 -27 -2 -53 7 -97 32 -2 2 8 20 22
42 l26 39 118 6 c65 4 127 8 138 10 42 7 134 6 138 -1z m-113 -33 c12 -7 11
-9 -5 -9 -11 1 -33 -4 -50 -10 -23 -8 -1 -10 103 -9 73 0 136 -3 139 -6 4 -3
-45 -6 -108 -6 -156 0 -246 -9 -246 -25 0 -7 5 -11 12 -9 6 3 70 -30 142 -72
l131 -76 -21 -36 c-11 -21 -21 -38 -22 -40 -5 -7 -140 80 -137 89 1 6 -2 8 -8
4 -13 -8 -132 64 -125 76 4 5 0 6 -7 4 -8 -3 -22 2 -33 10 -19 16 -19 16 10
10 17 -3 35 -13 41 -21 14 -18 28 -18 21 0 -3 8 2 16 15 19 11 3 17 10 14 15
-3 6 -15 8 -26 5 -14 -4 -20 0 -20 10 0 36 12 47 51 47 28 0 39 4 39 15 0 11
7 14 24 9 13 -3 27 -1 30 5 9 13 16 14 36 1z m27 -12 c-3 -8 -6 -5 -6 6 -1 11
2 17 5 13 3 -3 4 -12 1 -19z m-175 0 c-7 -7 -16 -7 -28 0 -14 8 -13 10 10 10
18 0 24 -4 18 -10z m345 6 c-3 -3 -12 -4 -19 -1 -8 3 -5 6 6 6 11 1 17 -2 13
-5z m23 -14 c0 -5 -5 -10 -11 -10 -5 0 -7 5 -4 10 3 6 8 10 11 10 2 0 4 -4 4
-10z m-5231 -292 c31 -40 49 -73 45 -79 -4 -7 -3 -9 4 -5 5 3 23 -11 39 -31
l30 -38 -32 -27 -31 -27 -60 75 c-32 40 -62 74 -65 74 -3 0 -23 -15 -44 -33
l-39 -34 52 -64 53 -64 -28 -22 c-15 -13 -31 -23 -34 -23 -4 0 -26 25 -49 55
-23 30 -46 55 -51 55 -5 0 -26 -15 -46 -34 l-37 -33 61 -74 61 -74 -36 -26
-35 -26 -60 76 c-33 42 -74 90 -90 108 l-30 32 34 28 c18 15 99 88 178 160 80
73 148 129 151 125 4 -4 30 -37 59 -74z m4756 53 c24 -10 27 -14 15 -22 -12
-8 -10 -9 7 -4 27 7 39 -10 16 -24 -10 -6 -13 -11 -7 -11 5 0 15 5 22 12 15
15 35 -2 68 -58 51 -87 39 -198 -30 -273 -45 -49 -99 -71 -176 -71 -54 0 -74
5 -116 30 -142 81 -176 239 -80 365 59 76 173 99 281 56z m-2065 -202 c0 -5
-7 -9 -15 -9 -15 0 -20 12 -9 23 8 8 24 -1 24 -14z m1868 -486 c-23 -24 -35
-30 -47 -23 -9 5 -88 81 -176 169 l-159 161 34 35 34 36 173 -173 172 -173
-31 -32z m-2467 284 c13 -9 1 -5 -27 10 -28 16 -61 36 -75 46 -13 9 -1 5 27
-10 28 -16 61 -36 75 -46z m299 -12 c0 -2 -10 -9 -22 -15 -22 -11 -22 -10 -4
4 21 17 26 19 26 11z m-195 -53 c-4 -5 -75 37 -75 44 0 3 18 -6 39 -18 22 -12
38 -24 36 -26z m-1822 -13 c43 -12 101 -59 123 -100 21 -41 19 -99 -3 -99 -45
0 -63 12 -63 42 0 38 -40 78 -78 78 -52 0 -69 -46 -33 -91 34 -45 71 -124 71
-154 0 -37 -22 -81 -39 -77 -7 1 -10 -2 -7 -7 10 -16 -36 -41 -77 -41 -71 0
-150 48 -184 114 -14 27 -22 110 -11 121 3 3 19 2 36 -1 25 -5 32 -12 32 -31
0 -47 28 -93 65 -109 43 -18 72 -11 87 21 9 20 4 35 -36 102 -49 83 -57 123
-32 172 19 37 51 58 106 70 3 0 22 -4 43 -10z m3788 -63 c3 -3 3 -23 1 -45
l-4 -40 -47 6 c-83 10 -151 -44 -151 -120 0 -117 118 -213 212 -174 43 18 69
54 77 105 6 35 8 37 50 40 l44 3 -7 -46 c-12 -94 -82 -170 -180 -196 -114 -31
-245 52 -282 177 -47 162 53 292 227 294 31 0 58 -2 60 -4z m-971 -86 c-6 -11
-15 -20 -20 -20 -13 0 -12 8 3 25 18 21 29 18 17 -5z m-43 -6 c-3 -3 -12 -4
-19 -1 -8 3 -5 6 6 6 11 1 17 -2 13 -5z m-2373 -110 l115 -77 -26 -32 c-26
-32 -27 -33 -51 -17 l-25 16 24 8 c21 7 20 7 -6 4 -34 -5 -95 31 -75 44 9 5 9
9 1 14 -6 4 -11 2 -11 -4 0 -6 -8 -9 -18 -6 -13 4 -23 -3 -36 -29 -10 -19 -27
-43 -37 -54 -17 -18 -17 -20 -1 -18 18 1 142 -78 142 -91 -1 -4 -11 -19 -23
-34 l-22 -27 -30 24 -30 24 40 -5 c38 -4 38 -3 10 6 -16 5 -36 8 -43 5 -19 -7
-80 37 -75 55 3 8 -8 -5 -23 -30 -15 -25 -34 -53 -42 -63 -8 -9 -13 -19 -11
-21 2 -2 41 -28 86 -57 76 -51 80 -56 66 -74 -8 -11 -18 -26 -22 -34 -7 -11
-14 -9 -39 9 -17 13 -28 28 -25 33 3 6 1 7 -6 3 -6 -4 -34 9 -64 30 -28 21
-67 48 -84 60 l-33 22 101 158 c56 88 112 176 125 197 13 20 26 37 29 37 2 0
56 -34 119 -76z m743 -30 c-3 -3 -12 -4 -19 -1 -8 3 -5 6 6 6 11 1 17 -2 13
-5z m88 -26 c13 -5 9 -6 -15 -2 -19 4 -42 10 -50 15 -18 11 34 1 65 -13z m58
-15 c-7 -2 -19 -2 -25 0 -7 3 -2 5 12 5 14 0 19 -2 13 -5z m2260 -300 l47 -49
-41 -23 -41 -23 -39 38 -40 39 -75 -40 c-75 -40 -75 -40 -69 -75 3 -19 8 -42
11 -50 3 -11 -10 -23 -41 -38 -25 -12 -45 -18 -45 -14 0 4 -18 115 -40 246
-22 131 -39 240 -38 241 2 1 23 14 47 28 l45 26 135 -129 c75 -71 157 -150
184 -177z m-2216 291 c-3 -3 -12 -4 -19 -1 -8 3 -5 6 6 6 11 1 17 -2 13 -5z
m1038 -15 c-44 -10 -89 -18 -100 -18 -27 1 123 36 155 37 14 0 -11 -8 -55 -19z
m-965 1 c20 -6 21 -8 5 -8 -11 0 -31 4 -45 8 -20 6 -21 8 -5 8 11 0 31 -4 45
-8z m83 -17 c-7 -2 -21 -2 -30 0 -10 3 -4 5 12 5 17 0 24 -2 18 -5z m90 -10
c-13 -2 -33 -2 -45 0 -13 2 -3 4 22 4 25 0 35 -2 23 -4z m627 -4 c-25 -4 -65
-7 -90 -7 l-45 1 50 7 c28 4 68 7 90 7 l40 0 -45 -8z m-537 -6 c-13 -2 -33 -2
-45 0 -13 2 -3 4 22 4 25 0 35 -2 23 -4z m320 -10 c-45 -2 -122 -2 -170 0 -48
1 -11 3 82 3 94 0 133 -2 88 -3z m-1179 -69 c45 -29 96 -95 96 -126 0 -12 -11
-19 -35 -24 -20 -3 -37 -5 -38 -3 -1 2 -9 17 -17 34 -23 45 -78 78 -119 71
-72 -11 -145 -87 -157 -164 -14 -86 42 -162 117 -162 50 0 74 13 93 48 9 15
15 20 16 12 0 -27 -30 -59 -66 -69 -53 -15 -101 -3 -131 33 -14 17 -33 30 -42
28 -12 -2 -13 -1 -3 6 9 6 11 19 4 48 -5 23 -5 50 0 63 7 20 6 23 -12 18 -11
-3 -20 -1 -20 4 0 8 15 13 33 10 4 0 7 5 7 13 0 8 6 17 13 19 7 3 5 6 -6 6
-10 1 -20 -5 -23 -12 -7 -20 -44 -19 -38 1 4 13 3 13 -6 -2 -7 -10 -13 -42
-14 -70 -1 -51 -1 -51 29 -49 l30 2 -27 -10 c-16 -6 -28 -14 -28 -19 0 -19 13
-40 21 -34 5 3 6 -2 3 -10 -5 -12 0 -16 17 -16 17 0 20 -3 10 -9 -16 -10 36
-52 88 -70 65 -21 178 -5 194 29 3 6 4 5 3 -2 -4 -23 -69 -48 -121 -48 -174 2
-276 147 -219 313 20 58 86 134 139 159 58 27 149 20 209 -18z m2194 -227 c39
-117 72 -218 72 -223 0 -13 -44 -34 -71 -34 -13 0 -18 4 -13 12 4 7 3 8 -4 4
-15 -9 -144 93 -135 106 3 6 1 8 -5 4 -11 -7 -137 94 -145 116 -2 7 -7 11 -10
8 -3 -3 16 -73 43 -155 28 -83 50 -153 50 -157 0 -8 -78 -33 -83 -27 -2 2 -13
38 -25 79 -12 41 -42 140 -67 220 -25 80 -45 148 -45 151 0 3 22 11 50 18 l49
13 86 -72 c46 -40 82 -77 78 -83 -3 -6 -1 -7 6 -3 6 4 31 -9 56 -30 25 -20 45
-35 45 -32 0 2 -20 63 -44 136 l-45 133 22 8 c12 4 29 11 37 14 8 3 17 6 20 6
3 1 38 -95 78 -212z m-1895 117 c15 -3 27 -11 27 -16 0 -6 -7 -7 -16 -4 -9 3
-28 9 -42 12 -21 4 -24 3 -12 -5 13 -9 13 -11 -1 -11 -11 0 -22 -19 -33 -60
-9 -33 -14 -65 -11 -70 3 -6 2 -10 -3 -10 -8 0 -29 -73 -39 -138 -7 -51 5 -98
35 -134 23 -29 24 -31 3 -13 -54 46 -63 118 -30 248 44 178 59 218 77 213 9
-3 29 -8 45 -12z m13 -51 c-32 -114 -66 -256 -66 -281 0 -81 129 -109 159 -34
6 15 27 90 46 166 19 76 36 141 39 143 2 2 24 -1 47 -8 24 -6 38 -14 31 -16
-7 -3 -25 0 -41 5 -28 10 -29 9 -41 -34 -7 -24 -10 -50 -7 -59 4 -8 1 -15 -4
-15 -7 0 -9 -11 -7 -25 3 -13 2 -22 -2 -20 -4 3 -17 -30 -29 -72 -27 -100 -51
-127 -109 -120 -27 3 -53 14 -68 28 -22 20 -25 31 -22 71 2 27 -1 48 -7 49 -5
0 -4 3 3 6 13 5 17 39 5 46 -5 2 -3 2 4 1 7 -2 18 17 26 44 12 45 12 47 -8 54
-19 6 -19 6 3 7 13 1 20 6 17 11 -3 6 -1 10 4 10 6 0 11 14 11 30 0 17 5 30
11 30 6 0 8 -8 5 -17z m-49 -19 c-3 -3 -12 -4 -19 -1 -8 3 -5 6 6 6 11 1 17
-2 13 -5z m686 -48 c67 -28 97 -118 62 -186 -15 -29 -61 -60 -87 -60 -7 1 2 7
21 16 35 15 63 43 55 56 -3 5 0 8 5 8 6 0 11 20 11 44 0 62 -37 107 -83 101
-27 -4 -28 -4 -7 3 l25 9 -30 6 c-27 6 -189 27 -207 27 -5 0 -8 -4 -8 -8 0 -4
16 -9 37 -10 20 -2 43 -7 52 -12 11 -6 -2 -7 -35 -4 l-52 5 -3 -50 c-3 -30 0
-51 6 -51 6 0 5 -4 -1 -8 -7 -4 -15 -50 -19 -104 -7 -89 -6 -96 11 -101 17 -4
17 -5 -2 -6 -17 -1 -21 -8 -23 -48 -2 -45 -7 -61 -15 -52 -3 3 39 463 43 465
9 5 217 -28 244 -40z m-970 3 c40 -17 73 -33 75 -34 2 -2 -9 -30 -24 -64 -15
-33 -29 -59 -31 -57 -3 2 0 14 7 25 9 18 8 21 -7 22 -17 1 -17 2 0 6 9 2 24
17 32 33 14 28 14 28 -25 44 -47 19 -53 20 -45 6 3 -6 -1 -7 -10 -3 -12 4 -13
8 -5 13 9 5 5 10 -10 15 -17 5 -27 2 -37 -11 -7 -10 -13 -21 -13 -25 0 -11 58
-22 72 -13 7 4 6 -1 -3 -10 -15 -17 -19 -17 -48 -2 -17 9 -31 13 -31 10 0 -4
-2 -5 -5 -2 -6 6 23 78 31 78 3 0 38 -14 77 -31z m287 16 c0 -2 -9 -3 -19 -2
-11 0 -18 5 -15 9 4 6 34 0 34 -7z m-590 -4 c0 -6 -4 -13 -10 -16 -5 -3 -10 1
-10 9 0 9 5 16 10 16 6 0 10 -4 10 -9z m874 -76 c-12 -47 -25 -93 -28 -103 -9
-31 3 52 13 93 14 54 14 53 -11 58 -20 4 -19 4 5 6 17 0 27 7 27 16 0 8 4 15
8 15 5 0 -1 -38 -14 -85z m854 -40 c23 -60 61 -159 85 -220 l45 -110 -27 -6
c-39 -10 -71 -10 -71 -1 0 4 17 9 37 10 21 2 39 4 40 6 2 2 -5 24 -14 49 -16
45 -19 47 -55 47 -29 0 -36 -3 -32 -15 4 -8 14 -15 23 -16 10 0 11 -2 4 -6 -8
-3 -11 -15 -8 -31 5 -26 5 -26 -9 3 -9 17 -15 35 -16 42 0 9 -24 10 -87 6 -49
-3 -89 -7 -91 -8 -2 -2 -9 -25 -16 -52 -12 -48 -12 -48 -58 -51 l-46 -3 38
133 c20 73 50 179 66 235 l29 102 55 3 c30 2 58 1 61 -2 3 -3 24 -54 47 -115z
m-667 71 c-9 -11 -9 -15 1 -18 8 -3 8 -6 -3 -10 -11 -4 -15 1 -15 18 0 14 6
24 14 24 11 0 12 -3 3 -14z m88 -14 l-35 -3 -10 -69 -10 -70 63 0 c53 0 64 3
77 22 21 30 20 67 -1 91 -17 19 -17 19 4 6 12 -7 24 -20 26 -30 4 -16 -15 -85
-28 -97 -4 -4 -42 -7 -86 -7 -43 0 -79 -4 -79 -8 0 -5 -5 -5 -11 -2 -6 5 -5
11 5 18 18 14 36 84 19 74 -6 -4 -16 -1 -22 7 -9 11 -7 13 11 12 13 0 23 5 24
12 1 6 2 22 3 35 1 21 5 22 44 17 l42 -5 -36 -3z m56 -2 c3 -5 1 -10 -4 -10
-6 0 -11 5 -11 10 0 6 2 10 4 10 3 0 8 -4 11 -10z m69 -2 c-3 -4 -11 -5 -19
-1 -21 7 -19 12 4 10 11 0 18 -5 15 -9z m-959 -18 c-3 -5 -12 -10 -18 -10 -7
0 -6 4 3 10 19 12 23 12 15 0z m752 -16 c-3 -3 -12 -4 -19 -1 -8 3 -5 6 6 6
11 1 17 -2 13 -5z m6 -61 c-7 -2 -21 -2 -30 0 -10 3 -4 5 12 5 17 0 24 -2 18
-5z m-986 -9 c-3 -3 -12 -4 -19 -1 -8 3 -5 6 6 6 11 1 17 -2 13 -5z m450 0
c-3 -3 -12 -4 -19 -1 -8 3 -5 6 6 6 11 1 17 -2 13 -5z m276 -11 c-7 -2 -19 -2
-25 0 -7 3 -2 5 12 5 14 0 19 -2 13 -5z m250 0 c-7 -2 -19 -2 -25 0 -7 3 -2 5
12 5 14 0 19 -2 13 -5z m-243 -27 c0 -2 -11 -6 -25 -8 -13 -3 -22 -1 -19 3 5
9 44 13 44 5z m-11 -90 c-21 -46 -64 -86 -91 -86 -7 0 2 8 19 16 23 12 41 33
60 73 16 31 29 54 31 50 2 -4 -7 -28 -19 -53z m256 36 c-3 -3 -11 0 -18 7 -9
10 -8 11 6 5 10 -3 15 -9 12 -12z m83 -9 c-10 -2 -28 -2 -40 0 -13 2 -5 4 17
4 22 1 32 -1 23 -4z m110 -41 c13 -24 21 -46 18 -49 -3 -4 -11 8 -17 25 -8 22
-18 32 -32 33 -21 0 -21 1 -2 9 16 6 17 9 5 13 -40 14 -43 16 -20 14 18 -1 31
-14 48 -45z m-172 1 c-3 -16 -8 -54 -12 -85 -6 -55 -8 -58 -33 -57 -23 2 -24
2 -3 6 12 2 22 9 22 14 0 5 -10 10 -22 10 l-23 2 23 4 c12 2 23 9 23 14 5 36
3 55 -6 61 -6 5 -6 8 3 8 6 0 12 11 12 25 0 14 5 25 11 25 6 0 8 -11 5 -27z
m96 13 c7 4 8 2 4 -4 -4 -7 5 -40 19 -74 40 -95 39 -94 27 -83 -11 11 -56 116
-66 155 -3 14 -3 19 0 12 3 -6 11 -9 16 -6z m-605 -22 c-3 -3 -12 -4 -19 -1
-8 3 -5 6 6 6 11 1 17 -2 13 -5z m70 -20 c-3 -3 -12 -4 -19 -1 -8 3 -5 6 6 6
11 1 17 -2 13 -5z m-57 -34 c8 -5 11 -10 5 -10 -5 0 -17 5 -25 10 -8 5 -10 10
-5 10 6 0 17 -5 25 -10z m697 -6 c-3 -3 -12 -4 -19 -1 -8 3 -5 6 6 6 11 1 17
-2 13 -5z m-614 -11 c-13 -2 -33 -2 -45 0 -13 2 -3 4 22 4 25 0 35 -2 23 -4z
m640 -45 l16 -38 -27 1 c-18 1 -21 3 -9 6 13 3 16 10 12 21 -11 27 -18 57 -13
52 3 -3 13 -22 21 -42z"/>
<path d="M5121 8210 l-2 -160 46 0 c99 0 154 59 155 163 0 101 -51 157 -146
157 l-50 0 -3 -160z"/>
<path d="M5707 8211 c-27 -51 -47 -94 -45 -96 2 -1 27 -7 56 -12 l52 -10 -1
46 c-1 25 -4 73 -8 106 l-7 60 -47 -94z"/>
<path d="M4346 8289 c-22 -5 -41 -11 -43 -13 -2 -2 2 -26 8 -55 9 -44 14 -51
30 -46 10 3 29 8 42 11 56 16 76 70 35 98 -12 9 -25 16 -28 15 -3 -1 -23 -5
-44 -10z"/>
<path d="M4374 8089 l-31 -9 11 -57 c12 -56 13 -58 41 -55 17 2 46 11 65 20
28 14 36 24 38 50 2 18 -2 40 -9 48 -13 16 -67 17 -115 3z"/>
<path d="M3398 7899 c-21 -11 -38 -22 -38 -26 0 -3 11 -26 25 -50 29 -48 36
-48 88 1 29 27 33 46 17 77 -13 24 -45 24 -92 -2z"/>
<path d="M3528 7746 c-70 -37 -70 -37 -37 -89 16 -26 32 -47 36 -47 12 0 74
52 89 76 15 22 15 26 0 49 -19 28 -48 32 -88 11z"/>
<path d="M5750 7576 c0 -2 7 -7 16 -10 8 -3 12 -2 9 4 -6 10 -25 14 -25 6z"/>
<path d="M5825 7550 c4 -6 11 -8 16 -5 14 9 11 15 -7 15 -8 0 -12 -5 -9 -10z"/>
<path d="M5940 7530 c0 -5 5 -10 10 -10 6 0 10 5 10 10 0 6 -4 10 -10 10 -5 0
-10 -4 -10 -10z"/>
<path d="M6020 7530 c8 -5 20 -10 25 -10 6 0 3 5 -5 10 -8 5 -19 10 -25 10 -5
0 -3 -5 5 -10z"/>
<path d="M5990 7511 c0 -9 -8 -11 -22 -8 -22 6 -22 6 -3 -9 17 -12 20 -12 28
2 5 8 6 18 3 21 -3 4 -6 1 -6 -6z"/>
<path d="M6140 7480 c8 -5 20 -10 25 -10 6 0 3 5 -5 10 -8 5 -19 10 -25 10 -5
0 -3 -5 5 -10z"/>
<path d="M6061 7466 c-12 -14 -11 -16 8 -16 11 0 21 -4 21 -9 0 -5 9 -7 20 -4
11 3 20 13 19 22 0 10 -2 11 -6 4 -2 -7 -12 -13 -21 -13 -15 0 -15 2 -2 11 13
9 13 10 -2 6 -9 -3 -18 -1 -20 5 -2 6 -9 3 -17 -6z"/>
<path d="M6183 7455 c0 -8 4 -12 9 -9 5 3 6 10 3 15 -9 13 -12 11 -12 -6z"/>
<path d="M6152 7431 c-8 -5 1 -12 27 -21 22 -7 38 -17 35 -21 -2 -4 9 -7 25
-7 19 1 28 5 24 14 -2 7 -11 10 -18 8 -7 -3 -16 0 -20 5 -3 6 -11 9 -16 6 -5
-4 -9 -1 -9 6 0 7 -3 9 -7 6 -3 -4 -11 -3 -17 3 -7 5 -17 5 -24 1z"/>
<path d="M6340 7386 c0 -3 9 -10 20 -16 11 -6 20 -8 20 -6 0 3 -9 10 -20 16
-11 6 -20 8 -20 6z"/>
<path d="M6253 7363 c13 -13 57 -7 57 8 0 5 -16 8 -35 6 -27 -1 -32 -5 -22
-14z"/>
<path d="M6310 7355 c-10 -12 -10 -18 0 -30 17 -21 37 -19 43 5 6 24 -2 26
-18 3 -8 -11 -14 -13 -19 -5 -4 7 -3 12 2 12 6 0 12 7 16 15 3 8 2 15 -3 15
-5 0 -14 -7 -21 -15z"/>
<path d="M6280 7331 c0 -6 4 -13 10 -16 6 -3 7 1 4 9 -7 18 -14 21 -14 7z"/>
<path d="M6451 7224 c0 -11 3 -14 6 -6 3 7 2 16 -1 19 -3 4 -6 -2 -5 -13z"/>
<path d="M2758 4383 c7 -3 16 -2 19 1 4 3 -2 6 -13 5 -11 0 -14 -3 -6 -6z"/>
<path d="M2718 4353 c7 -3 16 -2 19 1 4 3 -2 6 -13 5 -11 0 -14 -3 -6 -6z"/>
<path d="M7437 4329 c-4 -16 -3 -18 9 -8 7 6 11 15 8 20 -8 13 -11 11 -17 -12z"/>
<path d="M2785 4300 c-3 -5 -1 -10 4 -10 6 0 11 5 11 10 0 6 -2 10 -4 10 -3 0
-8 -4 -11 -10z"/>
<path d="M2790 4236 c0 -2 8 -10 18 -17 15 -13 16 -12 3 4 -13 16 -21 21 -21
13z"/>
<path d="M7386 4200 c-18 -47 -20 -53 -7 -45 5 3 12 1 16 -5 3 -5 1 -10 -5
-10 -7 0 -7 -7 1 -22 11 -20 10 -21 -3 -10 -13 10 -17 9 -22 -10 -4 -17 -8
-20 -15 -10 -7 11 -9 11 -14 -1 -4 -11 0 -15 14 -12 23 5 26 -13 3 -22 -8 -3
-13 -12 -10 -20 3 -8 2 -12 -3 -9 -14 9 -21 -20 -8 -33 9 -9 8 -11 -3 -7 -19
6 -65 -80 -47 -88 7 -2 2 -5 -10 -5 -13 -1 -23 -5 -23 -11 0 -5 8 -7 18 -4 16
5 16 5 0 -6 -9 -6 -15 -17 -12 -24 3 -8 0 -17 -7 -22 -8 -5 -10 -3 -4 7 4 8
-1 5 -12 -6 -15 -15 -18 -25 -11 -37 10 -21 22 -24 15 -4 -3 8 0 17 8 20 10 3
12 0 8 -12 -3 -9 -3 -14 1 -10 4 3 9 12 11 20 10 41 18 57 28 51 6 -3 7 -1 3
5 -4 7 -3 12 1 12 5 0 10 12 11 27 1 15 9 31 17 36 8 4 15 15 15 22 0 8 5 15
11 15 6 0 8 7 5 16 -3 8 -2 13 3 10 14 -9 21 20 8 34 -9 10 -9 11 0 6 18 -10
58 75 41 86 -8 5 -2 6 15 2 20 -4 27 -2 27 8 0 21 -11 29 -25 18 -22 -19 -39
15 -26 51 16 47 6 46 -13 -1z"/>
<path d="M2805 4150 c-4 -6 -1 -10 5 -10 6 0 8 -4 5 -10 -3 -6 1 -7 9 -4 9 3
16 10 16 14 0 12 -29 20 -35 10z"/>
<path d="M7410 4080 c0 -5 5 -10 11 -10 5 0 7 5 4 10 -3 6 -8 10 -11 10 -2 0
-4 -4 -4 -10z"/>
<path d="M2828 4073 c7 -3 16 -2 19 1 4 3 -2 6 -13 5 -11 0 -14 -3 -6 -6z"/>
<path d="M2885 4050 c-3 -6 1 -7 9 -4 18 7 21 14 7 14 -6 0 -13 -4 -16 -10z"/>
<path d="M2940 3971 c0 -5 7 -15 17 -22 15 -13 15 -12 4 9 -12 23 -21 28 -21
13z"/>
<path d="M7190 3779 c0 -5 5 -7 10 -4 6 3 10 8 10 11 0 2 -4 4 -10 4 -5 0 -10
-5 -10 -11z"/>
<path d="M7190 3752 c-14 -9 -26 -24 -28 -32 -2 -8 -9 -18 -15 -22 -9 -6 -9
-8 1 -8 6 0 12 -5 12 -11 0 -5 -4 -8 -9 -4 -5 3 -12 1 -15 -4 -4 -5 0 -8 6 -7
24 3 39 18 34 33 -4 8 -2 11 5 7 8 -4 9 1 4 17 -3 14 -3 19 2 12 6 -8 14 -9
23 -3 12 8 11 10 -5 10 -16 0 -17 2 -5 9 8 6 18 7 24 4 5 -3 6 -1 2 5 -9 15
-6 15 -36 -6z"/>
<path d="M7085 3600 c-3 -5 -2 -10 4 -10 5 0 13 5 16 10 3 6 2 10 -4 10 -5 0
-13 -4 -16 -10z"/>
<path d="M6439 3013 c-13 -16 -12 -17 4 -4 9 7 17 15 17 17 0 8 -8 3 -21 -13z"/>
<path d="M6365 2970 c3 -5 11 -10 16 -10 6 0 7 5 4 10 -3 6 -11 10 -16 10 -6
0 -7 -4 -4 -10z"/>
<path d="M6205 2920 c-3 -6 1 -7 9 -4 18 7 21 14 7 14 -6 0 -13 -4 -16 -10z"/>
<path d="M6296 2915 c-3 -9 -11 -13 -17 -9 -8 5 -9 3 -4 -5 6 -10 11 -9 23 3
9 8 13 18 10 21 -3 3 -8 -1 -12 -10z"/>
<path d="M6208 2894 c-16 -8 -28 -17 -28 -20 0 -3 5 -2 10 1 6 3 10 1 10 -5 0
-8 -10 -10 -27 -6 -18 4 -23 3 -15 -2 8 -5 13 -12 13 -16 -2 -15 0 -16 22 -1
13 8 28 12 32 8 5 -5 3 0 -4 10 -16 20 -14 22 19 36 14 5 18 10 10 10 -8 0
-27 -7 -42 -15z"/>
<path d="M2801 7422 c-79 -40 -99 -123 -48 -201 44 -66 120 -102 184 -87 14 4
41 22 60 41 27 27 33 41 33 74 0 74 -50 145 -122 176 -48 19 -65 19 -107 -3z"/>
<path d="M7640 7250 c-8 -5 -10 -10 -5 -10 6 0 17 5 25 10 8 5 11 10 5 10 -5
0 -17 -5 -25 -10z"/>
<path d="M7674 7232 c3 -5 0 -13 -6 -15 -9 -4 -10 -6 -1 -6 17 -1 25 16 12 25
-7 4 -9 3 -5 -4z"/>
<path d="M7625 7191 l-20 -8 20 -5 c15 -4 16 -6 5 -10 -106 -35 -159 -53 -179
-60 l-24 -9 23 -24 c13 -14 19 -29 15 -36 -5 -7 -4 -10 2 -6 14 9 47 -29 38
-42 -3 -6 -4 -11 -2 -11 11 0 142 185 143 202 1 10 1 18 0 17 0 0 -10 -4 -21
-8z"/>
<path d="M7695 7190 c-3 -6 1 -7 9 -4 18 7 21 14 7 14 -6 0 -13 -4 -16 -10z"/>
<path d="M7420 7170 c-8 -5 -10 -10 -5 -10 6 0 17 5 25 10 8 5 11 10 5 10 -5
0 -17 -5 -25 -10z"/>
<path d="M7689 7163 c-15 -2 -35 -13 -45 -24 -16 -18 -16 -19 7 -19 17 0 20 3
11 9 -11 7 -10 10 3 15 9 3 25 6 36 6 10 0 19 5 19 10 0 6 -1 9 -2 9 -2 -1
-15 -4 -29 -6z"/>
<path d="M7679 7116 c-2 -3 -16 -6 -31 -8 -15 -2 -30 -7 -34 -10 -3 -4 2 -5
13 -4 10 2 25 -1 33 -7 8 -6 12 -7 8 -3 -4 5 0 15 10 22 9 7 14 14 11 14 -3 0
-8 -2 -10 -4z"/>
<path d="M7589 7063 c-13 -16 -12 -17 4 -4 16 13 21 21 13 21 -2 0 -10 -8 -17
-17z"/>
<path d="M7596 7041 c-3 -4 6 -6 19 -3 14 2 25 6 25 8 0 8 -39 4 -44 -5z"/>
<path d="M7448 7003 c7 -3 16 -2 19 1 4 3 -2 6 -13 5 -11 0 -14 -3 -6 -6z"/>
<path d="M7535 6990 c-3 -6 1 -7 9 -4 18 7 21 14 7 14 -6 0 -13 -4 -16 -10z"/>
<path d="M7568 6973 c6 -2 18 -2 25 0 6 3 1 5 -13 5 -14 0 -19 -2 -12 -5z"/>
<path d="M7463 6963 c9 -2 23 -2 30 0 6 3 -1 5 -18 5 -16 0 -22 -2 -12 -5z"/>
<path d="M7535 6910 c-3 -6 1 -7 9 -4 18 7 21 14 7 14 -6 0 -13 -4 -16 -10z"/>
<path d="M7452 6883 c-33 -49 -34 -52 -10 -45 13 3 17 7 10 10 -10 3 -10 7 -2
17 6 8 19 11 28 8 13 -4 14 -3 3 5 -10 7 -7 12 15 20 l29 10 -27 1 c-18 1 -33
-8 -46 -26z"/>
<path d="M7505 6880 c3 -5 10 -10 16 -10 5 0 9 5 9 10 0 6 -7 10 -16 10 -8 0
-12 -4 -9 -10z"/>
<path d="M7440 6820 c1 -8 6 -23 14 -32 11 -15 14 -14 30 13 13 21 14 29 4 27
-7 -2 -16 -7 -20 -13 -5 -6 -12 -4 -18 5 -9 13 -10 13 -10 0z"/>
<path d="M5420 7080 c0 -5 5 -10 11 -10 5 0 7 5 4 10 -3 6 -8 10 -11 10 -2 0
-4 -4 -4 -10z"/>
<path d="M4940 7062 c-74 -4 -87 -10 -161 -75 -193 -168 -301 -240 -512 -343
-143 -69 -277 -110 -492 -149 -128 -23 -142 -28 -168 -56 l-28 -30 4 -717 c3
-521 7 -731 16 -767 7 -27 21 -89 32 -137 90 -400 350 -803 723 -1125 228
-196 698 -513 761 -513 37 0 329 187 535 341 290 218 500 434 673 692 128 191
250 473 291 677 30 149 36 299 36 923 0 687 2 662 -58 686 -15 6 -93 24 -174
40 -245 49 -456 128 -646 242 -107 65 -168 108 -300 216 -56 47 -116 88 -132
93 -26 7 -286 9 -400 2z m369 -368 c30 -25 31 -29 31 -104 0 -60 -3 -79 -15
-84 -13 -5 -15 -47 -15 -295 l0 -289 28 -53 c21 -41 42 -63 92 -96 94 -63 117
-89 160 -178 40 -84 60 -159 60 -227 0 -59 -6 -44 -14 31 -6 72 -40 184 -61
205 -8 7 -11 16 -8 20 4 3 1 6 -6 6 -7 0 -10 4 -6 9 3 5 -4 16 -15 24 -11 7
-18 16 -15 19 7 6 -26 36 -45 40 -8 2 -20 9 -26 17 -8 10 -27 14 -58 12 -27
-1 -46 2 -46 9 0 5 12 10 26 10 14 0 23 4 19 10 -3 5 -12 7 -20 3 -8 -3 -15 0
-15 6 0 6 -5 11 -11 11 -5 0 -7 -4 -4 -10 4 -6 -10 -9 -37 -8 -37 1 -38 2 -10
5 53 7 36 18 -20 14 -29 -2 -46 -6 -38 -9 8 -2 23 -11 32 -19 11 -10 26 -13
43 -9 14 4 25 2 25 -4 0 -5 -18 -10 -40 -10 -22 0 -40 -4 -40 -9 0 -5 18 -8
40 -7 22 1 40 -1 40 -4 0 -4 -28 -8 -62 -9 -34 -1 -65 -4 -68 -7 -3 -3 30 -4
73 -2 42 1 77 0 77 -4 0 -5 -26 -9 -57 -9 -32 -1 -46 -4 -30 -6 15 -2 27 -9
27 -14 0 -5 10 -13 23 -18 16 -6 3 -9 -48 -11 -97 -3 -95 -2 -95 -11 0 -4 12
-7 28 -7 15 1 45 0 67 -2 l40 -3 -45 -7 -45 -7 47 -1 c29 -1 48 3 51 11 3 7 6
5 6 -5 1 -15 -9 -18 -61 -19 -37 0 -55 -3 -45 -8 29 -11 22 -25 -20 -39 l-38
-12 43 5 c24 3 42 1 42 -5 0 -5 -7 -7 -15 -4 -8 4 -15 1 -15 -7 0 -7 3 -9 7
-6 3 4 17 0 30 -8 21 -14 23 -14 23 0 0 9 -4 13 -10 10 -5 -3 -10 1 -10 9 0
12 10 16 35 16 19 0 35 -3 35 -7 0 -13 -14 -30 -30 -36 -8 -3 -2 -6 15 -7 17
0 39 -8 50 -17 16 -13 17 -15 3 -10 -10 4 -18 2 -18 -3 0 -5 -7 -10 -17 -12
-14 -3 -14 -5 2 -18 11 -9 16 -10 11 -2 -4 7 -1 12 8 12 9 0 13 -6 10 -14 -7
-19 36 -78 53 -72 7 3 13 -1 13 -9 0 -8 8 -15 18 -16 9 0 12 -3 5 -5 -7 -3
-10 -13 -7 -22 3 -9 -2 -5 -11 11 -21 36 -26 34 -12 -3 7 -18 19 -30 29 -30
11 0 15 -5 12 -15 -5 -11 -2 -14 12 -9 17 6 17 5 -1 -9 -20 -16 -20 -16 3 -17
12 0 22 5 22 10 0 6 5 10 12 10 6 0 1 -12 -13 -27 l-24 -27 28 18 c16 9 34 15
40 12 7 -2 4 -5 -7 -5 -15 -1 -16 -4 -6 -16 6 -8 9 -19 5 -25 -3 -5 -1 -10 4
-10 6 0 11 6 11 14 0 7 8 16 18 18 11 3 19 0 19 -7 0 -8 -7 -11 -16 -7 -14 5
-14 3 -2 -11 10 -12 18 -14 31 -7 13 7 21 6 26 -2 4 -6 3 -8 -4 -4 -5 3 -12 0
-15 -6 -3 -10 -9 -10 -24 -1 -11 6 -25 8 -32 3 -10 -5 -9 -9 3 -13 9 -4 13
-13 10 -22 -3 -8 -11 -12 -18 -8 -6 3 -7 2 -3 -2 7 -9 23 -13 60 -17 9 -1 17
-6 17 -11 0 -5 -6 -7 -13 -4 -14 5 -43 -31 -33 -41 3 -3 6 0 6 7 0 15 43 32
51 19 3 -5 6 8 7 29 2 186 4 216 11 204 5 -7 9 -341 10 -741 2 -801 3 -783
-58 -814 -26 -14 -92 -16 -488 -16 -503 0 -486 -2 -518 61 -14 26 -16 133 -18
837 l-2 807 28 80 c40 113 86 177 172 235 94 64 130 106 144 170 6 30 11 160
11 310 0 224 -2 260 -15 260 -12 0 -15 16 -15 85 0 78 2 88 25 110 24 25 27
25 189 25 162 0 165 0 195 -26z m87 -966 c-10 -6 -22 -6 -26 -2 -5 5 3 10 18
11 22 1 24 0 8 -9z m44 8 c0 -3 -4 -8 -10 -11 -5 -3 -10 -1 -10 4 0 6 5 11 10
11 6 0 10 -2 10 -4z m-43 -32 c-3 -3 -12 -4 -19 -1 -8 3 -5 6 6 6 11 1 17 -2
13 -5z m-19 -21 c-10 -2 -26 -2 -35 0 -10 3 -2 5 17 5 19 0 27 -2 18 -5z m169
-79 c-3 -3 -12 -4 -19 -1 -8 3 -5 6 6 6 11 1 17 -2 13 -5z m-272 -24 c-4 -6 5
-10 20 -10 16 0 24 4 19 11 -4 8 0 8 15 0 11 -7 21 -13 21 -15 0 -1 -22 -3
-48 -5 -38 -1 -49 2 -49 14 0 8 7 15 14 15 8 0 11 -4 8 -10z m136 -7 c13 -16
12 -17 -3 -4 -10 7 -18 15 -18 17 0 8 8 3 21 -13z m9 -183 c0 -5 -4 -10 -10
-10 -5 0 -10 5 -10 10 0 6 5 10 10 10 6 0 10 -4 10 -10z m206 -248 c0 -13 -9
-18 -31 -20 -26 -1 -27 0 -9 8 12 5 25 13 29 19 9 15 11 14 11 -7z"/>
<path d="M5258 5953 c6 -2 18 -2 25 0 6 3 1 5 -13 5 -14 0 -19 -2 -12 -5z"/>
<path d="M5250 5929 c0 -4 11 -6 24 -5 13 0 22 4 20 8 -6 9 -44 6 -44 -3z"/>
<path d="M5178 5923 c7 -3 16 -2 19 1 4 3 -2 6 -13 5 -11 0 -14 -3 -6 -6z"/>
<path d="M5263 5903 c9 -2 25 -2 35 0 9 3 1 5 -18 5 -19 0 -27 -2 -17 -5z"/>
<path d="M5258 5883 c7 -3 16 -2 19 1 4 3 -2 6 -13 5 -11 0 -14 -3 -6 -6z"/>
<path d="M5245 5860 c-14 -7 -6 -8 25 -4 25 3 47 8 49 10 8 8 -54 3 -74 -6z"/>
<path d="M5302 5833 c2 -9 15 -18 31 -20 18 -3 26 0 22 7 -3 5 -13 10 -21 10
-8 0 -14 5 -14 10 0 6 -5 10 -11 10 -6 0 -9 -7 -7 -17z"/>
<path d="M5260 5831 c0 -10 19 -25 25 -20 1 2 -3 10 -11 17 -8 7 -14 8 -14 3z"/>
<path d="M5235 5740 c-3 -5 -1 -10 4 -10 6 0 11 5 11 10 0 6 -2 10 -4 10 -3 0
-8 -4 -11 -10z"/>
<path d="M5223 5675 c0 -8 4 -12 9 -9 4 3 8 9 8 15 0 5 -4 9 -8 9 -5 0 -9 -7
-9 -15z"/>
<path d="M5254 5668 c-3 -4 4 -8 15 -8 12 0 21 4 21 8 0 5 -7 9 -15 9 -9 0
-18 -4 -21 -9z"/>
<path d="M5188 5663 c7 -3 16 -2 19 1 4 3 -2 6 -13 5 -11 0 -14 -3 -6 -6z"/>
<path d="M5183 5603 c0 -10 4 -10 16 -1 9 7 18 13 20 15 2 1 -5 1 -16 0 -11 0
-20 -7 -20 -14z"/>
<path d="M5290 5530 c0 -5 4 -10 9 -10 6 0 13 5 16 10 3 6 -1 10 -9 10 -9 0
-16 -4 -16 -10z"/>
<path d="M5016 5494 c-73 -26 -146 -93 -179 -164 -16 -34 -23 -72 -27 -155
l-5 -110 -37 -6 c-43 -7 -64 -22 -84 -60 -11 -22 -14 -82 -14 -292 0 -263 0
-263 26 -315 14 -29 42 -66 62 -82 66 -54 115 -62 375 -58 262 3 287 9 359 84
66 70 71 90 75 362 3 163 1 253 -7 276 -15 46 -53 83 -95 90 l-35 7 0 93 c0
128 -18 175 -94 252 -43 42 -76 66 -110 77 -60 20 -157 21 -210 1z m189 -113
c50 -22 91 -69 105 -119 5 -20 10 -74 10 -119 l0 -83 -45 0 -45 0 0 85 c0 127
-25 165 -109 165 -91 0 -121 -42 -121 -169 l0 -81 -40 0 -40 0 0 95 c0 109 11
145 62 193 57 54 148 67 223 33z m264 -656 c2 -257 -6 -293 -71 -333 -34 -21
-47 -22 -284 -22 -358 0 -344 -14 -344 344 l0 236 349 0 349 0 1 -225z"/>
<path d="M5046 4784 c-33 -34 -34 -74 -1 -141 l25 -50 -20 -47 c-11 -26 -20
-52 -20 -58 0 -5 34 -8 85 -7 47 2 85 5 85 8 0 4 -9 30 -20 58 l-20 53 22 42
c32 61 30 114 -5 144 -39 34 -96 33 -131 -2z"/>
<path d="M5295 5479 c5 -6 55 0 55 7 0 3 -13 3 -29 2 -16 -1 -28 -5 -26 -9z"/>
<path d="M5505 5210 c-3 -5 1 -10 10 -10 9 0 13 5 10 10 -3 6 -8 10 -10 10 -2
0 -7 -4 -10 -10z"/>
<path d="M5596 5043 c-6 -14 -5 -15 5 -6 7 7 10 15 7 18 -3 3 -9 -2 -12 -12z"/>
<path d="M4680 4240 c0 -5 5 -10 11 -10 5 0 7 5 4 10 -3 6 -8 10 -11 10 -2 0
-4 -4 -4 -10z"/>
<path d="M4898 4163 c7 -3 16 -2 19 1 4 3 -2 6 -13 5 -11 0 -14 -3 -6 -6z"/>
<path d="M4930 4158 c0 -4 6 -8 14 -8 8 0 17 4 20 8 2 4 -4 8 -15 8 -10 0 -19
-4 -19 -8z"/>
<path d="M5010 4166 c0 -2 7 -6 15 -10 8 -3 15 -1 15 4 0 6 -7 10 -15 10 -8 0
-15 -2 -15 -4z"/>
<path d="M5130 4166 c0 -2 9 -6 20 -9 11 -3 18 -1 14 4 -5 9 -34 13 -34 5z"/>
<path d="M4820 4120 c-23 -7 -23 -8 -3 -9 12 -1 25 4 28 9 3 6 5 10 3 9 -2 -1
-14 -5 -28 -9z"/>
<path d="M4628 4113 c7 -3 16 -2 19 1 4 3 -2 6 -13 5 -11 0 -14 -3 -6 -6z"/>
<path d="M4753 4113 c9 -2 23 -2 30 0 6 3 -1 5 -18 5 -16 0 -22 -2 -12 -5z"/>
<path d="M4660 4092 c-43 -6 -41 -17 3 -14 23 2 68 -1 99 -6 32 -5 55 -5 52 0
-3 4 0 8 5 8 6 0 11 -4 11 -10 0 -5 4 -10 10 -10 5 0 7 6 4 14 -6 16 -45 29
-54 18 -7 -9 -40 -12 -40 -3 0 8 -45 9 -90 3z"/>
<path d="M4878 4093 c7 -3 16 -2 19 1 4 3 -2 6 -13 5 -11 0 -14 -3 -6 -6z"/>
<path d="M4910 4088 c0 -4 4 -8 9 -8 6 0 12 4 15 8 3 5 -1 9 -9 9 -8 0 -15 -4
-15 -9z"/>
<path d="M4960 4090 c0 -12 8 -12 35 0 18 8 17 9 -7 9 -16 1 -28 -3 -28 -9z"/>
<path d="M4592 4055 c0 -16 2 -22 5 -12 2 9 2 23 0 30 -3 6 -5 -1 -5 -18z"/>
<path d="M4865 4070 c-3 -5 -1 -10 4 -10 6 0 11 5 11 10 0 6 -2 10 -4 10 -3 0
-8 -4 -11 -10z"/>
<path d="M4890 4070 c0 -5 5 -10 11 -10 5 0 7 5 4 10 -3 6 -8 10 -11 10 -2 0
-4 -4 -4 -10z"/>
<path d="M4968 4069 c-14 -9 64 -16 93 -8 17 4 8 7 -29 10 -30 2 -59 1 -64 -2z"/>
<path d="M4644 4058 c-3 -5 -2 -8 3 -7 27 5 42 -3 40 -21 -1 -14 -8 -20 -24
-20 -12 0 -25 -4 -28 -10 -10 -16 -33 -12 -38 8 -3 9 -5 -29 -6 -85 l-1 -102
34 -36 35 -36 343 2 c188 2 354 5 368 7 23 5 23 6 5 13 -11 4 -36 8 -55 9
l-35 2 30 7 c17 4 35 4 40 1 16 -10 56 -10 49 1 -3 5 -2 9 3 8 19 -3 43 2 43
9 0 5 -19 7 -42 6 l-43 -3 39 14 c21 8 43 12 49 8 6 -3 7 -1 3 6 -4 6 -13 11
-19 10 -30 -4 -48 2 -41 13 4 7 3 8 -5 4 -9 -6 -9 -11 0 -22 9 -11 8 -14 -5
-14 -9 0 -16 5 -16 10 0 6 -3 9 -7 9 -5 -1 -12 0 -18 1 -12 3 -33 6 -57 9 -10
0 -18 6 -18 11 0 6 3 9 8 9 18 -3 45 2 39 7 -7 7 -87 11 -87 4 0 -3 -34 -5
-74 -5 -114 0 -76 12 58 19 156 8 168 20 16 17 -19 0 -29 2 -22 5 29 13 8 23
-39 19 -43 -5 -51 -3 -55 12 -4 14 -15 18 -49 18 -24 0 -47 -3 -51 -7 -4 -4
-13 -3 -20 2 -6 6 -16 10 -20 9 -22 -4 -55 2 -51 9 3 4 61 4 129 0 67 -3 131
-4 141 -2 9 3 17 1 17 -5 0 -6 -20 -11 -45 -11 -25 0 -45 -4 -45 -8 0 -9 77
-8 86 1 3 3 12 3 19 1 7 -3 16 0 20 7 5 7 3 10 -6 7 -8 -3 -19 2 -25 10 -8 12
-31 15 -93 15 -74 -1 -97 6 -71 22 6 3 10 2 10 -2 0 -9 138 -8 148 1 5 6 -83
10 -120 7 -10 -1 -18 3 -18 9 0 6 -5 8 -12 4 -7 -4 -27 -7 -45 -6 -24 2 -33
-2 -33 -13 0 -8 -7 -15 -16 -15 -12 0 -14 3 -6 13 9 10 4 13 -23 14 -27 0 -32
-3 -28 -16 4 -12 2 -11 -9 3 -12 15 -26 19 -67 17 -29 -1 -51 3 -51 9 0 5 -9
10 -20 10 -12 0 -17 -5 -14 -14 3 -8 0 -17 -7 -22 -8 -5 -10 -3 -4 6 6 10 3
12 -13 8 -12 -4 -20 -2 -17 2 3 5 0 12 -7 16 -18 11 -48 12 -54 2z m163 -34
c-3 -3 -12 -4 -19 -1 -8 3 -5 6 6 6 11 1 17 -2 13 -5z m133 -4 c0 -5 -5 -10
-11 -10 -5 0 -7 5 -4 10 3 6 8 10 11 10 2 0 4 -4 4 -10z m57 -12 c-3 -8 -6 -5
-6 6 -1 11 2 17 5 13 3 -3 4 -12 1 -19z m-305 -28 c-5 -13 -4 -13 14 0 17 14
18 13 7 -1 -14 -17 -113 -27 -113 -10 0 5 15 8 33 7 40 -4 57 5 31 15 -16 6
-14 7 7 6 20 -1 25 -5 21 -17z m108 5 c0 6 19 10 43 9 63 -2 71 -3 64 -10 -5
-6 -67 -7 -134 -4 -15 0 -16 2 -3 10 9 6 17 5 22 -3 4 -7 8 -8 8 -2z m109 -27
c77 0 139 -4 136 -8 -7 -12 -289 -3 -293 10 -3 7 -9 7 -20 -2 -15 -12 -16 -11
-3 5 10 12 17 14 26 7 8 -7 71 -11 154 -12z m-199 -14 c0 -2 -9 -4 -21 -4 -11
0 -18 4 -14 10 5 8 35 3 35 -6z m381 7 c-12 -8 -12 -12 -2 -25 9 -11 10 -16 2
-16 -6 0 -11 6 -11 13 0 8 -3 9 -8 1 -8 -13 -42 -15 -42 -2 0 5 8 8 18 6 11
-2 16 3 14 15 -2 12 4 17 20 17 18 0 20 -2 9 -9z m-451 -5 c0 -2 -9 -6 -20 -9
-11 -3 -18 -1 -14 4 5 9 34 13 34 5z m215 -26 c-3 -5 -10 -10 -16 -10 -5 0 -9
5 -9 10 0 6 7 10 16 10 8 0 12 -4 9 -10z m85 1 c0 -5 -9 -7 -20 -4 -11 3 -20
7 -20 9 0 2 9 4 20 4 11 0 20 -4 20 -9z m74 0 c-8 -9 -64 -9 -58 0 2 4 18 7
34 7 17 -1 28 -4 24 -7z m171 -1 c4 -6 -9 -10 -34 -10 -23 0 -41 4 -41 8 0 12
68 14 75 2z m-445 -20 c0 -5 -2 -10 -4 -10 -3 0 -8 5 -11 10 -3 6 -1 10 4 10
6 0 11 -4 11 -10z m-92 -7 c-10 -2 -26 -2 -35 0 -10 3 -2 5 17 5 19 0 27 -2
18 -5z m208 -2 c-3 -5 -15 -7 -26 -4 -28 7 -25 13 6 13 14 0 23 -4 20 -9z
m190 2 c-9 -9 -137 -13 -152 -5 -7 4 26 8 73 9 47 1 82 -1 79 -4z m-56 -33 c0
-5 -10 -10 -22 -10 -19 0 -20 2 -8 10 19 13 30 13 30 0z m74 -2 c-3 -4 -16 -8
-29 -8 -13 0 -26 4 -29 8 -2 4 10 8 29 8 19 0 31 -4 29 -8z m62 -1 c4 -4 -4
-6 -19 -5 -14 1 -24 5 -21 9 5 9 31 6 40 -4z m54 -3 c0 -2 -9 -4 -20 -4 -11 0
-20 4 -20 9 0 5 9 7 20 4 11 -3 20 -7 20 -9z m120 -8 c0 -3 -4 -8 -10 -11 -5
-3 -10 -1 -10 4 0 6 5 11 10 11 6 0 10 -2 10 -4z m-195 -20 c11 -2 -29 -4 -90
-4 -60 -1 -105 2 -98 6 11 7 141 5 188 -2z m140 4 c-3 -5 -32 -9 -63 -8 l-57
1 60 7 c33 4 61 7 63 8 2 1 0 -2 -3 -8z m90 -4 c7 3 16 1 20 -5 4 -7 -9 -11
-39 -11 -25 0 -48 5 -51 10 -4 7 3 9 19 6 16 -3 26 0 27 7 0 9 2 9 5 0 3 -7
11 -10 19 -7z m-442 -3 c-7 -2 -21 -2 -30 0 -10 3 -4 5 12 5 17 0 24 -2 18 -5z
m250 -50 c-13 -2 -35 -2 -50 0 -16 2 -5 4 22 4 28 0 40 -2 28 -4z"/>
<path d="M4635 4032 c-21 -7 -33 -32 -15 -32 6 0 10 5 10 10 0 6 9 10 20 10
11 0 20 5 20 10 0 11 -5 11 -35 2z"/>
<path d="M5225 4030 c-4 -6 3 -10 14 -10 25 0 27 6 6 13 -8 4 -17 2 -20 -3z"/>
<path d="M5260 3960 c0 -5 -7 -10 -15 -10 -8 0 -15 -5 -15 -10 0 -7 6 -7 19
-1 10 6 21 7 25 3 4 -3 4 1 0 11 -7 19 -14 22 -14 7z"/>
<path d="M5298 3963 c7 -3 16 -2 19 1 4 3 -2 6 -13 5 -11 0 -14 -3 -6 -6z"/>
<path d="M5473 3824 c0 -8 10 -14 25 -14 28 0 27 2 -4 18 -16 9 -21 8 -21 -4z"/>
<path d="M5465 3790 c-29 -8 -29 -8 7 -7 20 1 34 5 32 9 -3 4 -6 7 -7 7 -1 -1
-15 -5 -32 -9z"/>
<path d="M5465 3760 c-3 -5 1 -10 10 -10 9 0 13 5 10 10 -3 6 -8 10 -10 10 -2
0 -7 -4 -10 -10z"/>
<path d="M5500 7060 c8 -5 20 -10 25 -10 6 0 3 5 -5 10 -8 5 -19 10 -25 10 -5
0 -3 -5 5 -10z"/>
<path d="M5490 7030 c0 -5 6 -10 14 -10 7 0 19 -7 26 -15 7 -8 17 -15 23 -15
6 0 -4 11 -23 25 -38 28 -40 29 -40 15z"/>
<path d="M5565 7015 c17 -13 35 -24 42 -25 6 0 14 -5 16 -10 3 -6 4 -5 3 2 -1
7 -12 18 -24 24 -12 6 -19 14 -14 19 4 5 2 5 -5 1 -6 -3 -14 -2 -18 4 -3 5
-12 10 -18 10 -7 0 2 -11 18 -25z"/>
<path d="M5645 6949 c-5 -8 -4 -10 3 -5 7 4 12 2 12 -4 0 -6 18 -19 40 -29 22
-10 37 -20 34 -23 -3 -4 3 -9 14 -12 15 -5 19 -13 15 -29 -5 -21 -5 -21 9 -3
15 18 44 14 33 -5 -4 -5 0 -9 8 -9 7 0 32 -9 55 -20 49 -24 53 -24 46 -5 -4 8
-10 12 -15 9 -5 -3 -9 0 -9 5 0 6 -3 10 -7 9 -9 -2 -73 30 -73 37 0 2 16 -3
35 -11 19 -8 38 -13 42 -12 5 1 19 -4 31 -11 13 -7 26 -10 29 -7 7 7 -48 30
-66 27 -8 -1 -10 2 -6 9 5 9 1 10 -15 5 -15 -5 -20 -3 -16 3 3 6 1 14 -5 18
-7 4 -9 3 -6 -3 4 -6 -4 -10 -18 -10 -16 0 -25 5 -26 16 0 9 -3 11 -5 5 -7
-16 -75 17 -69 34 2 6 0 12 -4 12 -5 0 -11 -5 -13 -12 -3 -7 -12 -3 -25 11
-15 16 -23 19 -28 10z"/>
<path d="M5640 6910 c10 -6 11 -10 3 -10 -7 0 -13 -5 -13 -12 0 -9 3 -9 11 -1
14 14 42 5 32 -10 -4 -6 -1 -7 7 -2 10 6 7 12 -11 26 -13 10 -28 19 -34 19 -5
0 -3 -5 5 -10z"/>
<path d="M5700 6876 c0 -2 7 -7 16 -10 8 -3 12 -2 9 4 -6 10 -25 14 -25 6z"/>
<path d="M5736 6843 c-6 -14 -5 -15 5 -6 7 7 10 15 7 18 -3 3 -9 -2 -12 -12z"/>
<path d="M5780 6828 c0 -7 10 -14 21 -15 12 -1 20 -1 18 0 -2 2 -12 9 -21 16
-15 11 -18 11 -18 -1z"/>
<path d="M5946 6691 c-19 -7 -19 -8 2 -13 13 -4 20 -2 16 3 -3 6 6 7 23 4 21
-5 24 -4 13 4 -17 12 -27 13 -54 2z"/>
<path d="M6020 6650 c-13 -8 -12 -10 3 -10 9 0 17 5 17 10 0 12 -1 12 -20 0z"/>
<path d="M3531 4964 c0 -11 3 -14 6 -6 3 7 2 16 -1 19 -3 4 -6 -2 -5 -13z"/>
<path d="M3500 4910 c-8 -5 -12 -12 -9 -15 4 -3 12 1 19 10 14 17 11 19 -10 5z"/>
<path d="M3548 4823 c7 -3 16 -2 19 1 4 3 -2 6 -13 5 -11 0 -14 -3 -6 -6z"/>
<path d="M3511 4796 c-9 -10 -8 -15 2 -19 8 -3 13 3 13 14 0 23 0 23 -15 5z"/>
<path d="M3550 4800 c20 -13 33 -13 25 0 -3 6 -14 10 -23 10 -15 0 -15 -2 -2
-10z"/>
<path d="M3515 4731 c3 -6 12 -8 20 -4 11 4 13 1 9 -11 -9 -24 20 -20 42 7 19
22 19 22 -2 5 -24 -21 -41 -24 -26 -5 9 10 4 13 -19 15 -18 1 -28 -2 -24 -7z"/>
<path d="M3606 4697 c3 -10 9 -15 12 -12 3 3 0 11 -7 18 -10 9 -11 8 -5 -6z"/>
<path d="M3577 4681 c-3 -13 -10 -20 -16 -16 -6 3 -11 1 -11 -5 0 -5 13 -9 28
-8 15 1 33 -1 39 -5 6 -4 16 -1 22 7 9 11 6 12 -14 8 -19 -3 -27 1 -33 19 l-9
23 -6 -23z"/>
<path d="M3637 4574 c6 -16 19 -18 27 -5 3 5 -3 11 -13 14 -14 3 -18 1 -14 -9z"/>
<path d="M6526 4373 c-6 -14 -5 -15 5 -6 7 7 10 15 7 18 -3 3 -9 -2 -12 -12z"/>
<path d="M3664 4313 c2 -10 6 -17 10 -16 15 3 16 11 2 22 -12 10 -14 9 -12 -6z"/>
<path d="M5590 3425 c-9 -10 -9 -15 -1 -15 6 0 11 5 11 11 0 5 5 7 12 3 7 -4
8 -3 4 4 -9 15 -11 15 -26 -3z"/>
<path d="M5705 3420 c-3 -6 1 -7 9 -4 18 7 21 14 7 14 -6 0 -13 -4 -16 -10z"/>
<path d="M5470 3339 c-22 -18 -22 -19 -3 -10 12 6 25 16 28 21 9 15 3 12 -25
-11z"/>
<path d="M5580 3270 c0 -13 11 -13 30 0 12 8 11 10 -7 10 -13 0 -23 -4 -23
-10z"/>
<path d="M7862 6865 c-80 -47 -107 -68 -54 -41 33 17 60 14 33 -3 -11 -7 -8
-12 10 -22 21 -11 23 -11 11 3 -11 14 -6 16 53 11 l66 -5 -17 34 c-21 42 -28
50 -20 21 5 -14 3 -23 -3 -23 -6 0 -11 9 -11 21 0 12 -4 17 -11 14 -6 -4 -8
-13 -5 -20 6 -17 -43 -30 -57 -16 -8 8 -7 11 4 12 7 1 16 2 19 2 3 0 18 13 34
29 16 15 27 28 25 27 -2 0 -37 -20 -77 -44z"/>
<path d="M7748 6799 c-6 -4 10 -7 36 -6 25 0 44 3 41 5 -7 8 -65 8 -77 1z"/>
<path d="M7855 6772 c-22 -14 -51 -27 -65 -27 -14 -1 -35 -3 -48 -3 -13 -1
-20 -7 -17 -12 4 -7 13 -6 26 1 11 5 25 9 31 7 6 -2 -25 -26 -70 -52 -45 -26
-85 -54 -90 -61 -4 -7 -23 -16 -42 -18 -30 -4 -29 -5 8 -4 37 1 47 -3 68 -31
35 -44 73 -62 131 -62 99 1 173 63 173 146 0 44 -38 144 -54 143 -6 0 -29 -12
-51 -27z"/>
<path d="M7930 6796 c0 -7 50 -13 55 -7 2 4 -10 8 -26 9 -16 1 -29 1 -29 -2z"/>
<path d="M7710 6768 c0 -5 18 -8 40 -8 22 0 40 2 40 4 0 2 -18 6 -40 8 -22 2
-40 0 -40 -4z"/>
<path d="M7940 6769 c0 -5 5 -7 12 -3 6 4 8 3 5 -4 -13 -20 5 -42 33 -42 24 0
27 3 23 21 -8 28 -73 54 -73 28z"/>
<path d="M7665 6751 c-3 -5 -2 -12 3 -15 5 -3 9 1 9 9 0 17 -3 19 -12 6z"/>
<path d="M7607 6717 c-15 -10 -8 -12 44 -13 34 -1 57 1 51 5 -7 4 -24 7 -39 6
-16 0 -31 3 -34 7 -3 5 -13 2 -22 -5z"/>
<path d="M7970 6701 c0 -5 14 -11 30 -13 20 -3 30 0 30 9 0 8 -12 13 -30 13
-16 0 -30 -4 -30 -9z"/>
<path d="M7548 6684 c-38 -20 -36 -28 2 -9 17 9 30 18 30 20 0 7 -1 6 -32 -11z"/>
<path d="M7613 6683 c15 -2 37 -2 50 0 12 2 0 4 -28 4 -27 0 -38 -2 -22 -4z"/>
<path d="M7980 6671 c0 -12 29 -23 41 -15 5 3 9 0 9 -5 0 -6 -7 -11 -15 -11
-9 0 -15 -7 -13 -16 2 -10 -2 -19 -8 -21 -7 -2 -10 6 -7 24 3 20 -3 13 -22
-25 -15 -30 -42 -63 -61 -76 -19 -12 -32 -25 -30 -27 2 -2 -23 -5 -56 -7 -43
-1 -73 4 -105 18 -49 22 -119 28 -107 9 3 -6 20 -8 38 -5 17 3 38 1 46 -5 13
-9 13 -10 0 -8 -28 3 -63 -1 -58 -6 5 -5 52 -11 148 -16 21 -2 9 -5 -30 -8
-36 -4 -73 -3 -82 2 -30 13 -20 -2 12 -18 32 -17 54 -20 30 -5 -13 8 -12 10 3
10 9 0 17 -7 17 -15 0 -8 5 -15 11 -15 6 0 9 7 5 15 -4 12 2 15 27 14 30 -1
31 -1 7 -9 -22 -7 -22 -8 -5 -10 52 -7 129 5 161 24 41 24 98 109 91 136 -3
11 -1 20 4 20 11 0 12 50 2 51 -5 0 -18 2 -30 5 -13 2 -23 0 -23 -5z m0 -111
c-20 -13 -33 -13 -25 0 3 6 14 10 23 10 15 0 15 -2 2 -10z m3 -27 c-7 -2 -19
-2 -25 0 -7 3 -2 5 12 5 14 0 19 -2 13 -5z m-40 -40 c-7 -2 -19 -2 -25 0 -7 3
-2 5 12 5 14 0 19 -2 13 -5z m-98 -13 c-3 -5 -12 -10 -18 -10 -7 0 -6 4 3 10
19 12 23 12 15 0z m74 -16 c2 -2 -7 -4 -22 -4 -14 0 -29 5 -32 10 -6 10 42 4
54 -6z"/>
<path d="M7587 6659 c7 -7 15 -10 18 -7 3 3 -2 9 -12 12 -14 6 -15 5 -6 -5z"/>
<path d="M7620 6659 c0 -5 5 -7 10 -4 6 3 10 8 10 11 0 2 -4 4 -10 4 -5 0 -10
-5 -10 -11z"/>
<path d="M7563 6623 c9 -2 23 -2 30 0 6 3 -1 5 -18 5 -16 0 -22 -2 -12 -5z"/>
<path d="M7585 6579 c-15 -6 -11 -8 19 -8 22 -1 36 2 32 6 -10 10 -29 11 -51
2z"/>
<path d="M7630 6556 c0 -2 7 -7 16 -10 8 -3 12 -2 9 4 -6 10 -25 14 -25 6z"/>
<path d="M8209 6306 c-5 -4 -186 -16 -247 -16 -24 0 -41 -3 -39 -7 3 -5 -35
-6 -84 -4 l-90 3 5 -27 c5 -29 16 -47 16 -27 0 7 9 12 20 12 11 0 20 5 20 11
0 6 -9 9 -20 6 -11 -3 -23 -1 -26 4 -3 5 19 8 53 7 56 -3 59 -4 55 -26 -3 -16
-7 -20 -12 -12 -5 9 -13 9 -27 1 -11 -5 -23 -7 -27 -4 -3 3 -6 1 -6 -5 0 -8
19 -12 53 -12 30 0 47 -4 39 -8 -9 -6 -10 -16 -1 -40 8 -24 17 -32 37 -33 24
-2 24 -2 5 -6 -27 -5 -27 -6 -6 -61 l17 -45 -40 -37 -41 -38 15 -36 c11 -29
17 -34 28 -25 8 6 11 16 7 22 -3 5 -2 7 4 4 13 -8 67 48 59 62 -5 7 -1 8 10 4
12 -4 15 -3 10 5 -4 7 -1 12 9 12 19 0 62 49 57 65 -2 5 0 7 3 3 11 -11 47 11
39 24 -4 6 -3 8 2 5 6 -3 16 -1 24 4 13 8 13 10 0 20 -13 9 -13 10 2 5 11 -3
38 12 75 42 l59 47 -16 37 c-10 25 -22 38 -35 39 -19 0 -19 1 -1 8 12 4 15 10
9 14 -6 4 -12 5 -14 3z m-196 -33 c-7 -2 -19 -2 -25 0 -7 3 -2 5 12 5 14 0 19
-2 13 -5z m54 1 c-3 -3 -12 -4 -19 -1 -8 3 -5 6 6 6 11 1 17 -2 13 -5z m-148
-20 c6 4 18 3 27 -2 11 -6 4 -9 -25 -10 -38 -2 -50 6 -34 21 4 4 10 2 14 -4 4
-6 12 -8 18 -5z m254 -15 c-11 -11 -255 -28 -271 -19 -8 4 10 8 40 9 29 1 89
5 133 9 106 10 107 10 98 1z m-20 -47 c-122 -109 -153 -133 -163 -127 -5 3
-10 12 -10 20 0 7 -8 12 -17 10 -10 -1 -12 0 -5 2 15 6 15 8 -4 62 -8 24 -13
46 -10 48 5 6 46 -103 46 -123 0 -9 39 18 95 66 95 80 147 112 68 42z m5 -59
c-10 -2 -26 -2 -35 0 -10 3 -2 5 17 5 19 0 27 -2 18 -5z m-188 -57 c0 -2 -7
-6 -15 -10 -8 -3 -15 -1 -15 4 0 6 7 10 15 10 8 0 15 -2 15 -4z m117 -2 c-3
-3 -12 -4 -19 -1 -8 3 -5 6 6 6 11 1 17 -2 13 -5z m-62 -55 c-4 -5 -14 -8 -23
-8 -15 1 -15 2 1 6 9 2 14 9 11 15 -4 7 -2 8 5 4 6 -4 9 -12 6 -17z m-45 -4
c0 -2 -9 -9 -20 -15 -16 -9 -18 -8 -14 5 5 13 34 22 34 10z m-20 -44 c0 -5
-16 -11 -35 -13 -39 -4 -35 8 5 15 14 2 26 5 28 6 1 0 2 -3 2 -8z m-23 -37
c-3 -3 -12 -4 -19 -1 -8 3 -5 6 6 6 11 1 17 -2 13 -5z"/>
<path d="M7819 6243 c-13 -15 -12 -15 9 -4 23 12 28 21 13 21 -5 0 -15 -7 -22
-17z"/>
<path d="M8181 5846 c-34 -19 -50 -54 -50 -111 0 -45 3 -52 33 -75 19 -14 33
-27 31 -30 -7 -12 54 -8 93 6 47 18 72 53 72 105 0 41 -37 106 -64 113 -36 10
-90 6 -115 -8z m119 -61 c9 -11 10 -18 1 -28 -6 -8 -8 -16 -5 -19 3 -3 -13 -8
-35 -10 -23 -2 -41 0 -41 4 0 5 13 8 30 8 19 0 33 7 40 20 10 19 7 20 -47 21
-56 2 -56 2 -18 9 61 11 62 11 75 -5z m-90 -25 c0 -5 -2 -10 -4 -10 -3 0 -8 5
-11 10 -3 6 -1 10 4 10 6 0 11 -4 11 -10z m-3 -77 c-3 -10 -5 -2 -5 17 0 19 2
27 5 18 2 -10 2 -26 0 -35z m77 16 c-2 -4 2 -10 8 -12 8 -4 9 -6 2 -6 -6 -1
-17 5 -23 12 -8 10 -7 14 4 14 8 0 12 -4 9 -8z"/>
<path d="M2167 4604 c-32 -6 -60 -14 -64 -17 -3 -3 -2 -27 2 -52 11 -76 61
-106 113 -69 18 12 22 24 21 62 -2 86 -5 90 -72 76z"/>
<path d="M2383 3687 c-73 -39 -133 -75 -133 -78 0 -23 71 -107 104 -123 35
-17 45 -18 85 -7 82 21 132 72 133 137 0 38 -37 144 -51 144 -3 0 -66 -33
-138 -73z"/>
<path d="M2413 3423 c9 -2 25 -2 35 0 9 3 1 5 -18 5 -19 0 -27 -2 -17 -5z"/>
<path d="M7595 3640 c3 -5 11 -10 16 -10 6 0 7 5 4 10 -3 6 -11 10 -16 10 -6
0 -7 -4 -4 -10z"/>
<path d="M7630 3639 c0 -5 11 -9 25 -9 14 0 25 2 25 4 0 2 -11 6 -25 8 -14 3
-25 1 -25 -3z"/>
<path d="M7747 3595 c-16 -11 -15 -12 8 -12 28 0 42 12 22 20 -7 3 -21 -1 -30
-8z"/>
<path d="M7800 3580 c0 -6 -12 -10 -27 -11 -16 0 -23 -3 -16 -5 7 -3 9 -12 6
-20 -3 -9 1 -14 13 -14 11 0 37 -7 59 -15 32 -11 35 -14 15 -15 -23 0 -23 -1
10 -23 19 -12 47 -28 62 -34 24 -11 28 -9 43 13 9 14 15 27 13 29 -16 16 -178
102 -178 95z m30 -29 c0 -5 -11 -8 -25 -7 -33 1 -33 16 0 16 14 0 25 -4 25 -9z
m65 -41 c-3 -5 -1 -10 6 -10 7 0 10 -3 6 -6 -9 -9 -28 6 -22 17 4 5 8 9 11 9
3 0 2 -4 -1 -10z m22 -36 c-3 -3 -12 -4 -19 -1 -8 3 -5 6 6 6 11 1 17 -2 13
-5z"/>
<path d="M2683 3223 c9 -2 23 -2 30 0 6 3 -1 5 -18 5 -16 0 -22 -2 -12 -5z"/>
<path d="M7480 3452 c0 -4 18 -6 40 -4 22 2 40 6 40 8 0 2 -18 4 -40 4 -22 0
-40 -3 -40 -8z"/>
<path d="M7578 3443 c7 -3 16 -2 19 1 4 3 -2 6 -13 5 -11 0 -14 -3 -6 -6z"/>
<path d="M7528 3393 c6 -2 18 -2 25 0 6 3 1 5 -13 5 -14 0 -19 -2 -12 -5z"/>
<path d="M7465 3365 c-56 -20 -85 -59 -85 -116 0 -53 20 -85 83 -130 32 -23
50 -29 93 -29 45 0 59 5 87 30 48 42 62 79 47 125 -32 98 -134 152 -225 120z"/>
<path d="M7608 3368 c5 -5 16 -8 23 -6 8 3 3 7 -10 11 -17 4 -21 3 -13 -5z"/>
<path d="M7675 3370 c-30 -8 -30 -8 8 -9 23 -1 36 3 32 9 -3 6 -7 9 -8 9 -1
-1 -15 -5 -32 -9z"/>
<path d="M7650 3339 c0 -5 5 -7 10 -4 6 3 10 8 10 11 0 2 -4 4 -10 4 -5 0 -10
-5 -10 -11z"/>
<path d="M7676 3312 c-2 -4 13 -7 35 -7 21 0 39 3 39 7 0 5 -15 8 -34 8 -19 0
-37 -3 -40 -8z"/>
<path d="M7698 3283 c6 -2 10 -9 6 -14 -3 -5 0 -9 5 -9 6 0 11 7 11 15 0 8 -8
15 -17 14 -11 0 -13 -3 -5 -6z"/>
<path d="M7743 3283 c-18 -7 -16 -20 2 -20 8 0 15 6 15 14 0 7 -1 13 -2 12 -2
0 -9 -3 -15 -6z"/>
<path d="M7710 3213 c0 -70 -74 -142 -147 -144 -15 0 -37 -5 -48 -10 -15 -6
-7 -8 30 -6 28 1 53 6 56 11 4 5 11 0 17 -10 9 -18 6 -19 -41 -16 -41 2 -49 0
-37 -8 12 -9 6 -10 -25 -6 -32 4 -36 3 -21 -6 28 -16 124 -1 173 28 48 28 55
39 19 32 -14 -3 -31 -1 -38 4 -10 7 -8 8 5 4 9 -3 17 -1 17 4 0 6 7 10 15 10
8 0 15 6 16 13 0 6 4 3 8 -8 7 -18 9 -18 25 8 10 15 16 34 12 42 -3 9 -2 13 4
10 6 -3 10 0 10 9 0 8 2 20 3 28 2 7 2 10 0 6 -8 -14 -43 -8 -43 7 0 8 7 15
15 15 8 0 15 4 15 9 0 6 -9 9 -20 8 -16 -1 -20 -8 -20 -34z m37 -29 c-3 -3
-12 -4 -19 -1 -8 3 -5 6 6 6 11 1 17 -2 13 -5z m-97 -134 c0 -5 -5 -10 -11
-10 -5 0 -7 5 -4 10 3 6 8 10 11 10 2 0 4 -4 4 -10z"/>
<path d="M7426 3091 c-6 -10 24 -25 32 -16 3 3 0 5 -7 5 -7 0 -9 5 -6 10 3 6
2 10 -4 10 -5 0 -12 -4 -15 -9z"/>
<path d="M7483 3073 c9 -2 23 -2 30 0 6 3 -1 5 -18 5 -16 0 -22 -2 -12 -5z"/>
<path d="M3153 2945 c-30 -13 -60 -51 -50 -62 3 -2 8 5 12 16 3 12 13 21 21
21 8 0 14 5 14 10 0 13 46 13 70 0 13 -7 21 -7 25 0 4 7 13 6 26 -1 12 -6 23
-8 26 -6 9 10 -39 29 -58 24 -10 -3 -17 -1 -13 4 8 14 -37 10 -73 -6z"/>
<path d="M3250 2906 c0 -2 7 -7 16 -10 8 -3 12 -2 9 4 -6 10 -25 14 -25 6z"/>
<path d="M3308 2903 c7 -3 16 -2 19 1 4 3 -2 6 -13 5 -11 0 -14 -3 -6 -6z"/>
<path d="M3090 2862 c0 -4 16 -6 35 -4 19 2 35 6 35 8 0 2 -16 4 -35 4 -19 0
-35 -4 -35 -8z"/>
<path d="M3300 2863 c0 -15 18 -35 27 -32 5 2 1 12 -9 22 -10 9 -18 14 -18 10z"/>
<path d="M3090 2829 c0 -5 5 -7 10 -4 6 3 10 8 10 11 0 2 -4 4 -10 4 -5 0 -10
-5 -10 -11z"/>
<path d="M3349 2828 c-1 -7 -1 -17 0 -22 1 -5 -4 -4 -12 2 -11 9 -14 8 -14 -3
0 -8 6 -15 14 -15 7 0 16 0 20 0 5 0 9 11 10 25 2 25 -16 37 -18 13z"/>
<path d="M3106 2812 c-3 -5 9 -7 27 -5 30 2 30 2 7 -7 l-25 -9 24 2 c37 3 39
27 2 27 -16 0 -32 -4 -35 -8z"/>
<path d="M3178 2778 c11 -14 10 -17 -5 -21 -14 -4 -13 -5 5 -6 26 -1 29 11 5
30 -16 13 -17 12 -5 -3z"/>
<path d="M3120 2771 c0 -5 6 -14 14 -20 12 -10 13 -8 9 8 -5 21 -23 30 -23 12z"/>
<path d="M3190 2730 c0 -5 7 -7 15 -4 8 4 15 8 15 10 0 2 -7 4 -15 4 -8 0 -15
-4 -15 -10z"/>
<path d="M2950 2700 c0 -72 63 -138 152 -161 54 -13 72 -9 88 20 9 17 8 21 -5
21 -8 0 -15 -7 -15 -16 0 -8 -4 -13 -9 -10 -5 4 -11 1 -13 -5 -3 -9 -12 -9
-33 -1 -23 8 -25 11 -10 12 l20 1 -20 9 c-18 8 -17 9 8 9 20 1 26 -3 21 -11
-4 -7 2 -5 13 5 11 9 28 17 39 18 18 0 18 1 -1 9 -20 9 -16 12 20 14 11 1 23
-3 26 -8 4 -5 10 6 14 23 4 18 4 35 1 38 -3 4 -6 -2 -6 -13 0 -23 -39 -31 -52
-11 -5 8 -8 7 -8 -5 0 -30 -45 -51 -90 -44 -24 4 -40 2 -40 -4 0 -5 7 -7 15
-4 8 4 15 2 15 -3 0 -5 -10 -9 -23 -9 -20 0 -23 5 -23 31 1 26 -2 30 -26 30
-15 1 -30 4 -34 8 -4 4 2 7 14 7 15 0 22 6 21 18 0 10 -3 12 -6 5 -2 -7 -9
-13 -14 -13 -6 0 -7 5 -4 10 3 6 -1 10 -9 10 -9 0 -16 5 -16 11 0 5 5 7 10 4
15 -9 12 4 -5 21 -13 14 -15 12 -15 -16z m60 -90 c0 -5 -2 -10 -4 -10 -3 0 -8
5 -11 10 -3 6 -1 10 4 10 6 0 11 -4 11 -10z"/>
<path d="M2991 2714 c0 -11 3 -14 6 -6 3 7 2 16 -1 19 -3 4 -6 -2 -5 -13z"/>
<path d="M3190 2695 c11 -13 10 -14 -4 -9 -12 4 -15 2 -10 -9 4 -12 11 -13 34
-5 35 12 30 38 -7 38 -22 0 -24 -2 -13 -15z"/>
<path d="M3210 2590 c0 -5 5 -10 11 -10 5 0 7 5 4 10 -3 6 -8 10 -11 10 -2 0
-4 -4 -4 -10z"/>
<path d="M7085 2540 c-3 -6 1 -7 9 -4 18 7 21 14 7 14 -6 0 -13 -4 -16 -10z"/>
<path d="M7125 2520 c-3 -6 1 -7 9 -4 18 7 21 14 7 14 -6 0 -13 -4 -16 -10z"/>
<path d="M7045 2510 c-3 -5 -1 -10 4 -10 6 0 11 5 11 10 0 6 -2 10 -4 10 -3 0
-8 -4 -11 -10z"/>
<path d="M6958 2503 c7 -3 16 -2 19 1 4 3 -2 6 -13 5 -11 0 -14 -3 -6 -6z"/>
<path d="M3511 2738 c-14 -23 -14 -23 8 -4 22 20 25 26 13 26 -4 0 -13 -10
-21 -22z"/>
<path d="M3585 2710 c-3 -5 -1 -10 4 -10 6 0 11 5 11 10 0 6 -2 10 -4 10 -3 0
-8 -4 -11 -10z"/>
<path d="M3517 2689 c7 -7 15 -10 18 -7 3 3 -2 9 -12 12 -14 6 -15 5 -6 -5z"/>
<path d="M3604 2688 c-4 -7 -3 -8 5 -4 6 4 27 -2 46 -14 19 -12 35 -19 35 -17
0 6 -64 47 -73 47 -3 0 -9 -5 -13 -12z"/>
<path d="M3470 2675 c-7 -9 -11 -18 -8 -20 3 -3 11 1 18 10 7 9 11 18 8 20 -3
3 -11 -1 -18 -10z"/>
<path d="M3655 2640 c-3 -5 1 -10 10 -10 9 0 13 5 10 10 -3 6 -8 10 -10 10 -2
0 -7 -4 -10 -10z"/>
<path d="M3695 2639 c-4 -6 -4 -13 -1 -16 3 -4 6 0 6 8 0 12 2 12 9 0 5 -7 15
-11 22 -9 10 3 7 8 -8 16 -15 9 -24 9 -28 1z"/>
<path d="M3439 2623 c-13 -16 -12 -17 4 -4 16 13 21 21 13 21 -2 0 -10 -8 -17
-17z"/>
<path d="M3391 2549 c-17 -27 -29 -54 -26 -60 4 -5 1 -8 -7 -7 -7 2 -12 -5
-12 -14 1 -10 -2 -16 -6 -13 -4 3 -17 -9 -28 -27 -18 -28 -18 -33 -5 -46 13
-13 16 -13 24 -1 5 8 9 9 9 2 0 -6 9 -9 20 -6 11 3 20 9 20 13 0 5 3 17 6 27
5 17 5 17 -6 1 -6 -10 -21 -18 -33 -17 l-22 0 23 9 c30 13 28 20 -5 14 -21 -4
-25 -2 -17 6 6 6 20 13 30 14 11 2 20 12 22 24 3 17 10 22 34 22 40 0 30 11
-11 12 l-30 1 18 26 c23 33 43 71 37 71 -2 0 -18 -23 -35 -51z"/>
<path d="M3478 2593 c7 -3 16 -2 19 1 4 3 -2 6 -13 5 -11 0 -14 -3 -6 -6z"/>
<path d="M3454 2546 c11 -9 31 -16 45 -15 24 1 24 2 -5 8 -17 4 -37 11 -45 15
-8 4 -5 0 5 -8z"/>
<path d="M3400 2530 c0 -6 12 -10 27 -10 29 0 24 12 -7 17 -11 2 -20 -2 -20
-7z"/>
<path d="M3508 2513 c-35 -5 -36 -16 -3 -31 20 -9 23 -9 18 3 -7 19 30 20 49
2 13 -13 48 -30 48 -23 0 4 -79 56 -82 55 -2 -1 -15 -4 -30 -6z"/>
<path d="M3390 2460 c0 -11 5 -20 11 -20 5 0 7 5 4 10 -3 6 -1 10 5 10 6 0 8
5 5 10 -10 17 -25 11 -25 -10z"/>
<path d="M3345 2360 c-6 -10 -6 -11 35 -15 52 -5 56 -6 35 -15 -18 -8 -18 -9
5 -9 14 -1 32 -6 40 -12 11 -8 7 -9 -20 -5 -25 3 -29 2 -15 -4 11 -5 37 -11
58 -15 36 -6 53 -25 21 -25 -8 0 -12 -5 -9 -11 7 -10 45 16 45 31 0 8 -39 23
-53 21 -5 -1 -6 3 -2 8 7 13 -70 54 -107 58 -15 1 -30 -2 -33 -7z"/>
<path d="M6474 2500 c20 -102 38 -180 43 -180 3 0 27 12 54 26 l48 27 -48 56
c-27 31 -61 67 -76 81 l-27 25 6 -35z"/>
<path d="M6655 2410 c-3 -5 -1 -10 4 -10 6 0 11 5 11 10 0 6 -2 10 -4 10 -3 0
-8 -4 -11 -10z"/>
<path d="M6448 2403 c6 -2 18 -2 25 0 6 3 1 5 -13 5 -14 0 -19 -2 -12 -5z"/>
<path d="M6670 2350 c0 -5 5 -10 11 -10 5 0 7 5 4 10 -3 6 -8 10 -11 10 -2 0
-4 -4 -4 -10z"/>
<path d="M6555 2318 c-16 -11 -21 -17 -10 -13 11 4 27 8 34 9 16 3 29 27 14
25 -4 0 -21 -10 -38 -21z"/>
<path d="M6500 2300 c0 -5 5 -10 11 -10 5 0 7 5 4 10 -3 6 -8 10 -11 10 -2 0
-4 -4 -4 -10z"/>
<path d="M6495 2213 c-34 -8 -38 -20 -6 -19 18 1 31 6 31 14 0 6 -1 11 -2 11
-2 -1 -12 -3 -23 -6z"/>
<path d="M6475 2172 c-6 -4 -8 -20 -4 -37 l7 -30 1 32 c0 17 7 34 14 36 6 3 8
6 2 6 -5 0 -15 -3 -20 -7z"/>
<path d="M3935 2512 c6 -6 21 -13 35 -15 14 -3 6 -5 -17 -4 -23 1 -39 -1 -37
-5 6 -9 -65 -23 -73 -14 -3 3 9 12 28 20 19 9 28 15 21 16 -35 1 -148 -83
-136 -102 7 -10 71 -11 78 0 3 5 -10 8 -29 7 -19 0 -35 3 -35 7 0 4 10 8 23 9
44 1 80 8 86 17 10 15 95 13 125 -3 15 -8 32 -12 37 -9 5 3 9 2 8 -3 -4 -22 2
-32 16 -27 11 5 13 2 9 -10 -5 -12 0 -16 17 -17 17 -1 19 -3 7 -6 -10 -2 -18
-9 -18 -15 0 -6 10 -8 23 -4 12 3 25 6 30 6 4 0 7 5 7 11 0 5 -4 8 -9 5 -5 -4
-7 2 -4 13 6 23 -49 80 -98 103 -44 20 -108 34 -94 20z m80 -39 c-19 -13 -31
-11 -21 5 3 5 13 9 22 9 15 0 15 -2 -1 -14z m-146 -19 c2 -2 -12 -4 -33 -4
-22 0 -35 4 -31 10 5 9 52 4 64 -6z m181 6 c-20 -13 -33 -13 -25 0 3 6 14 10
23 10 15 0 15 -2 2 -10z m44 -29 c4 -5 -3 -7 -14 -4 -23 6 -26 13 -6 13 8 0
17 -4 20 -9z"/>
<path d="M3736 2385 c-3 -8 0 -15 7 -16 29 -3 63 3 72 13 7 7 0 9 -22 6 -18
-3 -33 -1 -33 4 0 14 -18 9 -24 -7z"/>
<path d="M5836 2361 c-4 -5 3 -7 14 -4 23 6 26 13 6 13 -8 0 -17 -4 -20 -9z"/>
<path d="M5980 2310 c0 -5 5 -10 11 -10 5 0 7 5 4 10 -3 6 -8 10 -11 10 -2 0
-4 -4 -4 -10z"/>
<path d="M5918 2303 c7 -3 16 -2 19 1 4 3 -2 6 -13 5 -11 0 -14 -3 -6 -6z"/>
<path d="M6168 2303 c7 -3 16 -2 19 1 4 3 -2 6 -13 5 -11 0 -14 -3 -6 -6z"/>
<path d="M5868 2293 c6 -2 18 -2 25 0 6 3 1 5 -13 5 -14 0 -19 -2 -12 -5z"/>
<path d="M5860 2246 c0 -2 7 -7 16 -10 8 -3 12 -2 9 4 -6 10 -25 14 -25 6z"/>
<path d="M6228 2223 c7 -3 16 -2 19 1 4 3 -2 6 -13 5 -11 0 -14 -3 -6 -6z"/>
<path d="M5920 2211 c0 -6 4 -13 10 -16 6 -3 7 1 4 9 -7 18 -14 21 -14 7z"/>
<path d="M6033 2213 c9 -2 25 -2 35 0 9 3 1 5 -18 5 -19 0 -27 -2 -17 -5z"/>
<path d="M6108 2193 c6 -2 18 -2 25 0 6 3 1 5 -13 5 -14 0 -19 -2 -12 -5z"/>
<path d="M5918 2153 c6 -2 18 -2 25 0 6 3 1 5 -13 5 -14 0 -19 -2 -12 -5z"/>
<path d="M5912 2128 c-18 -18 -14 -28 11 -27 21 0 21 1 2 8 -18 7 -17 9 10 19
23 8 25 11 10 11 -12 1 -26 -4 -33 -11z"/>
<path d="M6198 2123 c12 -2 30 -2 40 0 9 3 -1 5 -23 4 -22 0 -30 -2 -17 -4z"/>
<path d="M5946 2092 c-3 -5 1 -9 9 -9 8 0 15 4 15 9 0 4 -4 8 -9 8 -6 0 -12
-4 -15 -8z"/>
<path d="M5956 2022 c-3 -5 1 -9 9 -9 8 0 12 4 9 9 -3 4 -7 8 -9 8 -2 0 -6 -4
-9 -8z"/>
<path d="M5948 1983 c7 -3 16 -2 19 1 4 3 -2 6 -13 5 -11 0 -14 -3 -6 -6z"/>
<path d="M5985 1971 c-18 -7 -17 -8 7 -13 19 -4 25 -1 21 9 -3 7 -6 13 -7 12
0 0 -10 -4 -21 -8z"/>
<path d="M5965 1940 c-3 -6 1 -7 9 -4 18 7 21 14 7 14 -6 0 -13 -4 -16 -10z"/>
<path d="M5305 2258 c-21 -65 -125 -428 -125 -436 0 -2 15 -2 33 0 27 3 32 7
32 30 -1 14 4 24 9 21 5 -4 7 1 3 10 -3 10 -2 17 3 17 6 0 10 7 10 15 0 11 12
15 43 16 34 0 38 2 22 10 -14 6 -2 8 40 6 33 -2 81 -1 106 2 l47 6 -15 38
c-12 29 -21 37 -42 38 -23 2 -24 2 -3 6 38 8 29 25 -21 37 -26 6 -27 5 -21
-21 4 -16 11 -34 17 -40 12 -16 -1 -21 -73 -26 -75 -6 -82 -2 -74 39 5 30 4
34 -15 34 -12 0 -21 6 -21 15 0 8 4 15 10 15 5 0 7 7 4 15 -5 11 -2 13 10 9
19 -7 17 -26 -4 -36 -12 -5 -12 -7 3 -7 10 -1 22 10 27 25 14 35 13 36 -11 29
-20 -7 -20 -6 -4 18 13 20 13 26 3 30 -7 3 1 6 17 7 30 2 30 2 5 10 l-25 8 25
2 c18 1 21 3 10 8 -18 8 -25 38 -10 47 6 4 10 3 9 -2 -5 -27 4 -33 49 -34 29
-1 37 -4 19 -6 -15 -2 -25 -9 -21 -14 3 -5 10 -6 16 -3 6 4 8 -1 4 -14 -12
-37 3 -72 33 -73 23 -2 24 -2 4 -6 -35 -7 -27 -18 13 -21 19 -1 33 1 31 5 -11
20 -36 82 -47 115 -7 25 -20 40 -38 47 -21 9 -22 10 -4 7 12 -2 22 0 22 5 0
14 -100 11 -105 -3z m120 -98 c-3 -5 -10 -10 -16 -10 -5 0 -9 5 -9 10 0 6 7
10 16 10 8 0 12 -4 9 -10z m-152 -157 c-7 -2 -19 -2 -25 0 -7 3 -2 5 12 5 14
0 19 -2 13 -5z m0 -30 c-7 -2 -19 -2 -25 0 -7 3 -2 5 12 5 14 0 19 -2 13 -5z
m171 -1 c2 -4 -4 -8 -14 -8 -10 0 -16 4 -14 8 3 4 9 8 14 8 5 0 11 -4 14 -8z
m-154 -22 c21 -7 18 -8 -18 -9 -26 -1 -41 3 -37 9 7 11 19 11 55 0z m-50 -30
c0 -5 -2 -10 -4 -10 -3 0 -8 5 -11 10 -3 6 -1 10 4 10 6 0 11 -4 11 -10z"/>
<path d="M5328 2108 l-26 -103 50 -3 c81 -5 81 -5 43 103 -18 53 -35 99 -38
101 -2 2 -15 -42 -29 -98z"/>
<path d="M5316 2153 c-6 -14 -5 -15 5 -6 7 7 10 15 7 18 -3 3 -9 -2 -12 -12z"/>
<path d="M6460 8556 c0 -2 9 -6 20 -9 11 -3 18 -1 14 4 -5 9 -34 13 -34 5z"/>
<path d="M6552 8524 c10 -10 20 -16 22 -13 3 3 -5 11 -17 18 -21 13 -21 12 -5
-5z"/>
<path d="M6598 8498 c5 -5 16 -8 23 -6 8 3 3 7 -10 11 -17 4 -21 3 -13 -5z"/>
<path d="M6675 8469 c4 -6 13 -8 20 -5 8 3 16 1 19 -5 2 -5 3 -4 2 2 -1 7 -12
14 -25 16 -14 2 -20 -1 -16 -8z"/>
<path d="M6767 8417 c23 -12 56 -30 74 -40 22 -12 36 -14 43 -7 7 7 5 10 -7
10 -9 0 -17 5 -17 11 0 5 6 7 13 3 9 -5 9 -3 -1 7 -11 12 -14 12 -22 -1 -8
-13 -14 -8 -12 11 1 3 -4 6 -11 7 -15 1 -52 10 -52 12 0 1 -11 3 -25 5 -18 3
-14 -2 17 -18z"/>
<path d="M6948 8283 c7 -3 16 -2 19 1 4 3 -2 6 -13 5 -11 0 -14 -3 -6 -6z"/>
<path d="M7146 8248 c3 -5 10 -6 15 -3 13 9 11 12 -6 12 -8 0 -12 -4 -9 -9z"/>
<path d="M7250 8070 c0 -5 5 -10 11 -10 5 0 7 5 4 10 -3 6 -8 10 -11 10 -2 0
-4 -4 -4 -10z"/>
<path d="M7280 8046 c0 -2 7 -6 15 -10 8 -3 15 -1 15 4 0 6 -7 10 -15 10 -8 0
-15 -2 -15 -4z"/>
<path d="M1511 4434 c0 -11 3 -14 6 -6 3 7 2 16 -1 19 -3 4 -6 -2 -5 -13z"/>
<path d="M1516 4365 c4 -8 7 -15 9 -15 2 0 5 7 9 15 3 9 0 15 -9 15 -9 0 -12
-6 -9 -15z"/>
<path d="M1536 4345 c-3 -9 -6 -22 -5 -28 0 -7 5 -1 10 12 5 13 8 26 5 28 -2
2 -6 -3 -10 -12z"/>
<path d="M1536 4291 c-4 -5 3 -7 14 -4 23 6 26 13 6 13 -8 0 -17 -4 -20 -9z"/>
<path d="M1547 4273 c-4 -3 -7 -11 -7 -17 0 -6 5 -5 12 2 6 6 9 14 7 17 -3 3
-9 2 -12 -2z"/>
<path d="M1567 4212 c-15 -16 -15 -18 1 -18 10 0 18 8 18 18 0 10 -1 18 -2 18
0 0 -8 -8 -17 -18z"/>
<path d="M1526 4157 c3 -10 9 -15 12 -12 3 3 0 11 -7 18 -10 9 -11 8 -5 -6z"/>
<path d="M1598 4133 c7 -3 16 -2 19 1 4 3 -2 6 -13 5 -11 0 -14 -3 -6 -6z"/>
<path d="M1577 4096 c-4 -10 -1 -13 9 -9 15 6 19 23 5 23 -5 0 -11 -7 -14 -14z"/>
<path d="M1590 4050 c21 -17 23 -21 10 -30 -22 -15 -30 -12 -30 9 0 11 -4 22
-9 25 -11 7 -2 -34 12 -51 11 -15 31 -18 22 -3 -3 6 1 10 9 10 22 0 30 -19 10
-27 -15 -6 -14 -7 5 -15 12 -4 20 -11 17 -16 -9 -15 9 -31 24 -22 12 8 12 10
1 10 -11 0 -11 3 -1 15 10 12 10 15 -4 15 -9 0 -16 5 -16 11 0 5 4 7 10 4 6
-3 7 1 4 9 -3 9 -10 14 -14 11 -5 -3 -14 11 -21 30 -9 25 -19 35 -34 35 -19 0
-18 -2 5 -20z"/>
<path d="M1670 3990 c0 -5 5 -10 11 -10 5 0 7 5 4 10 -3 6 -8 10 -11 10 -2 0
-4 -4 -4 -10z"/>
<path d="M1595 3950 c-3 -5 1 -10 9 -10 8 0 18 5 21 10 3 6 -1 10 -9 10 -8 0
-18 -4 -21 -10z"/>
<path d="M1601 3921 c-2 -21 22 -81 31 -81 5 0 4 10 -3 21 -6 12 -7 19 -1 15
10 -6 48 31 40 39 -3 3 -17 1 -31 -4 -21 -8 -27 -7 -30 7 -3 11 -5 12 -6 3z"/>
<path d="M1668 3886 c-10 -7 -18 -22 -18 -32 0 -16 2 -17 10 -4 7 11 10 12 10
2 0 -8 -9 -16 -21 -19 -14 -4 -18 -11 -13 -22 3 -9 9 -24 11 -33 3 -10 10 -18
15 -18 5 0 7 -3 5 -8 -3 -4 3 -22 12 -41 14 -26 19 -30 24 -17 4 9 14 16 23
16 10 0 14 5 10 15 -3 8 -3 15 0 15 2 0 8 -10 13 -22 l8 -22 5 22 c4 12 2 20
-3 16 -5 -3 -9 -1 -9 5 0 5 6 12 13 14 6 2 -1 3 -18 1 -20 -3 -26 -1 -16 5 16
10 7 46 -9 36 -5 -3 -22 1 -37 9 -16 8 -23 15 -18 15 6 1 16 -3 24 -8 21 -14
43 -3 28 14 -7 7 -16 10 -21 7 -5 -3 -6 -1 -3 4 3 6 2 16 -3 24 -5 9 -5 19 2
27 14 17 -2 16 -24 -1z m12 -110 c5 -13 13 -25 18 -27 6 -2 4 -10 -4 -17 -12
-11 -14 -10 -14 6 0 10 -5 23 -12 30 -7 7 -8 12 -2 12 5 0 2 5 -6 10 -10 7
-11 10 -2 10 7 0 17 -11 22 -24z m50 -1 c0 -7 -30 -13 -34 -7 -3 4 4 9 15 9
10 1 19 0 19 -2z"/>
<path d="M1725 3850 c3 -5 8 -10 11 -10 2 0 4 5 4 10 0 6 -5 10 -11 10 -5 0
-7 -4 -4 -10z"/>
<path d="M1750 3791 c0 -6 4 -13 10 -16 6 -3 7 1 4 9 -7 18 -14 21 -14 7z"/>
<path d="M7554 2459 c-19 -22 -19 -22 4 -10 12 6 22 16 22 21 0 15 -5 12 -26
-11z"/>
<path d="M7410 2335 c-7 -9 -8 -15 -2 -15 5 0 12 7 16 15 3 8 4 15 2 15 -2 0
-9 -7 -16 -15z"/>
</g>
</svg>
